<?xml version="1.0" encoding="UTF-8" standalone="no"?>
<svg
   xmlns:dc="http://purl.org/dc/elements/1.1/"
   xmlns:cc="http://creativecommons.org/ns#"
   xmlns:rdf="http://www.w3.org/1999/02/22-rdf-syntax-ns#"
   xmlns:svg="http://www.w3.org/2000/svg"
   xmlns="http://www.w3.org/2000/svg"
   xmlns:sodipodi="http://sodipodi.sourceforge.net/DTD/sodipodi-0.dtd"
   xmlns:inkscape="http://www.inkscape.org/namespaces/inkscape"
   sodipodi:docname="central park.svg"
   viewBox="0 0 463.82132 272.46326"
   inkscape:version="1.1-dev (48d18c81, 2020-07-08)"
   version="1.1"
   id="svg4421"
   height="272.46326"
   width="463.82132">
  <defs
     id="defs4423" />
  <sodipodi:namedview
     fit-margin-bottom="0"
     fit-margin-right="0"
     fit-margin-left="0"
     fit-margin-top="0"
     inkscape:window-maximized="0"
     inkscape:window-y="25"
     inkscape:window-x="0"
     inkscape:window-height="790"
     inkscape:window-width="1440"
     showgrid="false"
     inkscape:current-layer="layer1"
     inkscape:document-units="px"
     inkscape:cy="134.42463"
     inkscape:cx="248.9345"
     inkscape:zoom="0.4017121"
     inkscape:pageshadow="2"
     inkscape:pageopacity="0.0"
     borderopacity="1.0"
     bordercolor="#666666"
     pagecolor="#ffffff"
     id="base" />
  <metadata
     id="metadata4426">
    <rdf:RDF>
      <cc:Work
         rdf:about="">
        <dc:format>image/svg+xml</dc:format>
        <dc:type
           rdf:resource="http://purl.org/dc/dcmitype/StillImage" />
      </cc:Work>
    </rdf:RDF>
  </metadata>
  <g
     transform="translate(-140.13658,-659.4836)"
     id="layer1"
     inkscape:groupmode="layer"
     inkscape:label="Layer 1">
    <g
       transform="translate(1.5036301)"
       id="g5041">
      <g
         id="g5025">
        <path
           inkscape:connector-curvature="0"
           id="path5015"
           d="m 232.78032,930.11312 c 0,-4.58195 9.32154,-43.53069 10.61411,-44.34959 0.786,-0.49797 11.22278,-0.91261 23.19285,-0.92143 23.74695,-0.0175 27.9997,0.77216 30.20312,5.60812 2.62736,5.76644 -1.21049,16.09934 -7.79393,20.98405 -2.65919,1.97304 -4.79269,2.2428 -21.46832,2.71438 l -18.51569,0.52362 -1.25801,5.09732 c -1.45933,5.91301 -3.68222,8.76092 -8.39528,10.75574 -4.54189,1.92238 -6.57885,1.79474 -6.57885,-0.41221 z"
           style="fill:#0068a3;fill-opacity:1" />
        <path
           inkscape:connector-curvature="0"
           id="path5013"
           d="m 281.67106,903.49376 c 3.04921,-2.8646 3.22666,-7.69196 0.33954,-9.2371 -1.25259,-0.67036 -7.39953,-0.99846 -15.40534,-0.82227 l -13.32111,0.29318 -1.20475,6.0216 -1.20475,6.0216 h 14.18632 c 13.12411,0 14.36779,-0.17049 16.61009,-2.27701 z"
           style="fill:#ffffff;fill-opacity:1" />
      </g>
      <g
         id="g5029">
        <path
           inkscape:connector-curvature="0"
           id="path5011"
           d="m 295.61442,931.3825 c 0,-0.31301 1.6566,-7.96384 3.68134,-17.00181 4.17242,-18.62473 6.00843,-21.91807 14.72242,-26.40822 4.75992,-2.4527 6.26706,-2.64418 23.24159,-2.9527 16.53634,-0.30057 18.54502,-0.13947 22.57294,1.81041 4.94109,2.39194 8.05534,6.76379 8.01235,11.24791 -0.0157,1.63906 -1.55704,9.81333 -3.42516,18.16503 -3.77693,16.88528 -4.41016,17.67481 -10.94575,13.64761 -2.79648,-1.72318 -3.40351,-2.75372 -3.40351,-5.77795 v -3.68072 h -19.3598 -19.35979 l -1.54549,3.69888 c -1.11686,2.67303 -2.79078,4.26406 -6.03565,5.73679 -4.34931,1.97399 -8.15549,2.68093 -8.15549,1.51477 z"
           style="fill:#0068a3;fill-opacity:1" />
        <path
           inkscape:connector-curvature="0"
           id="path5009"
           d="m 353.92876,905.34494 c 1.2223,-5.38511 1.19731,-6.50105 -0.19307,-8.62306 -2.19602,-3.35156 -4.78025,-3.79083 -19.79251,-3.36438 -11.99938,0.34086 -13.23628,0.56605 -15.66986,2.85286 -1.59276,1.49669 -3.08177,4.53269 -3.74902,7.644 -1.91774,8.94209 -3.45142,8.2802 18.44678,7.96112 l 19.55367,-0.28492 z"
           style="fill:#ffffff;fill-opacity:1" />
      </g>
      <g
         id="g5033">
        <path
           inkscape:connector-curvature="0"
           id="path5007"
           d="m 369.99903,930.6426 c 0.0891,-3.77131 9.31599,-42.88961 10.43427,-44.23706 1.87887,-2.26389 47.49615,-2.33085 52.88889,-0.0776 4.38082,1.83043 5.50948,5.31171 3.703,11.42166 -1.54689,5.23193 -3.33136,7.39777 -7.52697,9.13566 l -3.15257,1.30583 3.19179,1.34205 c 4.28059,1.79985 4.80485,4.72354 2.52508,14.08196 l -1.90329,7.81296 -3.46004,-0.16191 c -1.90301,-0.089 -4.39858,-1.01129 -5.54569,-2.0494 -1.82768,-1.65404 -1.99861,-2.70016 -1.38198,-8.45811 0.68884,-6.43238 0.64461,-6.59308 -2.1025,-7.63753 -1.5434,-0.58683 -9.10364,-1.06693 -16.80055,-1.06693 h -13.9944 l -1.28963,6.0216 c -0.70929,3.31188 -2.27468,7.14267 -3.47862,8.51285 -3.6332,4.13487 -12.17629,6.99553 -12.10679,4.05397 z"
           style="fill:#0068a3;fill-opacity:1" />
        <path
           inkscape:connector-curvature="0"
           id="path5005"
           d="m 422.32985,901.58183 c 1.15196,-1.15196 2.09447,-2.94273 2.09447,-3.97949 0,-3.90448 -2.00869,-4.39839 -17.88812,-4.39839 h -15.37475 l -1.17157,4.65268 c -0.64435,2.55897 -1.17155,4.91525 -1.17155,5.23617 0,0.32093 7.06884,0.5835 15.70853,0.5835 14.31221,0 15.8947,-0.18618 17.80299,-2.09447 z"
           style="fill:#ffffff;fill-opacity:1" />
      </g>
      <path
         inkscape:connector-curvature="0"
         style="fill:#0068a3;fill-opacity:1"
         d="m 437.4117,930.11898 c 0.30894,-1.00796 2.64219,-11.39935 5.185,-23.09196 2.54282,-11.69262 4.89174,-21.52775 5.21984,-21.85583 1.39951,-1.39953 8.12865,0.93425 9.72685,3.37342 1.40873,2.15 1.49359,3.33827 0.5157,7.22182 -2.11074,8.3825 -2.93843,7.90987 13.85212,7.90987 16.75628,0 17.56682,-0.31258 19.00905,-7.33064 1.19068,-5.79404 7.67288,-11.51959 13.04192,-11.51959 2.57321,0 2.58956,0.28591 0.52682,9.21838 -1.82653,7.90964 -3.06254,9.97258 -7.28875,12.16515 l -2.95028,1.53063 2.69833,0.67724 c 4.39189,1.1023 5.204,4.92157 3.1114,14.63268 -2.05216,9.52344 -3.43731,10.51281 -9.49452,6.78173 -3.43792,-2.11767 -3.49389,-2.27105 -3.1417,-8.61098 0.48883,-8.79996 -0.46797,-9.24857 -18.99255,-8.90493 l -14.11494,0.26183 -1.39183,6.27983 c -1.61675,7.29468 -3.96502,10.21991 -9.54662,11.8922 -5.48706,1.64396 -6.62614,1.52352 -5.96584,-0.63085 z"
         id="path5003" />
      <path
         inkscape:connector-curvature="0"
         style="fill:#0068a3;fill-opacity:1"
         d="m 146.29461,855.06217 c -1.77679,-0.77361 -4.3037,-2.758 -5.61535,-4.40976 -2.12807,-2.67986 -2.32255,-3.7924 -1.80633,-10.33383 1.19186,-15.10334 5.95875,-23.84515 15.36476,-28.17685 4.18533,-1.92745 7.14367,-2.21105 26.44268,-2.53493 22.78543,-0.38239 23.6884,-0.20089 20.38778,4.09804 -2.6402,3.43877 -5.8208,4.09818 -19.79531,4.10403 -22.22234,0.009 -25.60122,1.8246 -28.61559,15.37358 -2.01397,9.05244 -1.27758,12.25931 3.2066,13.96419 1.48452,0.56442 10.6798,1.02621 20.43395,1.02621 19.53138,0 20.7034,0.45763 14.51277,5.6667 -3.21226,2.70293 -3.27994,2.71105 -22.25375,2.67019 -13.54865,-0.0292 -19.9624,-0.44623 -22.26221,-1.44757 z"
         id="path5001" />
      <path
         inkscape:connector-curvature="0"
         style="fill:#0068a3;fill-opacity:1"
         d="m 203.45774,855.80777 c -3.61067,-1.32761 -5.23616,-3.83019 -5.23455,-8.05904 0.002,-5.54009 2.88854,-11.24861 6.57214,-12.99775 l 2.90844,-1.38107 -2.38482,-1.93139 c -1.94104,-1.57197 -2.34973,-2.85823 -2.19619,-6.91207 0.21635,-5.71196 2.49876,-9.37605 7.77509,-12.48178 3.21427,-1.89196 5.8445,-2.12907 27.38045,-2.46829 25.99763,-0.4095 26.44415,-0.29688 20.57214,5.1884 l -3.25245,3.03825 h -16.05323 c -15.50103,0 -21.02883,0.84486 -22.69743,3.46903 -1.3617,2.14152 -0.89523,5.70419 0.83373,6.36766 0.91108,0.34962 9.13024,0.63566 18.26481,0.63566 9.13457,0 16.87847,0.43715 17.20869,0.97145 0.33021,0.53429 -0.54249,2.30149 -1.93935,3.92713 -2.5374,2.95297 -2.55464,2.95621 -18.80233,3.5219 -13.89634,0.48383 -16.57648,0.8503 -18.41992,2.51859 -2.40017,2.17212 -2.82211,5.78027 -0.90066,7.70171 0.88829,0.8883 7.02811,1.25669 20.9447,1.25669 20.43556,0 21.44984,0.23661 18.34567,4.27969 -2.82734,3.6825 -5.58815,4.09923 -26.60234,4.01551 -11.41346,-0.0455 -21.45863,-0.3426 -22.32259,-0.66028 z"
         id="path4999" />
      <path
         inkscape:connector-curvature="0"
         style="fill:#0068a3;fill-opacity:1"
         d="m 257.91396,855.67804 c 0,-1.90401 7.45569,-34.38581 8.4896,-36.98614 1.77366,-4.46089 5.42108,-7.12553 11.49527,-8.39793 7.23563,-1.51569 14.66353,-0.42561 17.96802,2.6369 1.40063,1.29805 3.86903,5.87066 5.48536,10.16135 8.56026,22.72412 9.41553,24.55249 11.63323,24.86936 1.20235,0.17178 2.71761,-0.3281 3.36725,-1.11086 0.64963,-0.78275 2.60998,-7.96044 4.35634,-15.95042 2.20808,-10.10246 3.83914,-15.23396 5.355,-16.84753 2.0488,-2.18085 9.97979,-5.00633 11.46903,-4.08594 1.16188,0.71809 -7.3454,37.53419 -9.31245,40.30049 -3.0333,4.26581 -8.2161,6.27996 -16.16425,6.28178 -12.54004,0.003 -12.6128,-0.0785 -22.16881,-24.79367 -7.38166,-19.09152 -9.52977,-18.55311 -14.61559,3.6633 -1.85104,8.08589 -4.03974,15.51457 -4.86378,16.50818 -2.70467,3.26122 -12.49422,6.20033 -12.49422,3.75113 z"
         id="path4997" />
      <path
         inkscape:connector-curvature="0"
         style="fill:#0068a3;fill-opacity:1"
         d="m 359.90533,854.71806 c 0.59473,-1.97916 7.9683,-35.72307 7.9683,-36.46562 0,-0.24718 -5.68963,-0.44941 -12.6436,-0.44941 -11.37905,0 -12.60902,-0.17961 -12.29777,-1.79583 0.19021,-0.98771 1.94386,-2.87273 3.89699,-4.18894 3.48771,-2.35037 4.07199,-2.39311 32.71883,-2.39311 17.59862,0 29.16772,0.39221 29.16772,0.98884 0,0.54386 -1.13554,2.31107 -2.52341,3.92713 -2.41003,2.80628 -3.03202,2.96181 -13.84347,3.46191 l -11.32006,0.52362 -2.88084,13.09043 c -4.51773,20.52837 -4.57221,20.6644 -9.22753,23.03936 -5.29224,2.69991 -9.78707,2.83034 -9.01516,0.26162 z"
         id="path4995" />
      <g
         id="g5017">
        <path
           inkscape:connector-curvature="0"
           id="path4993"
           d="m 403.47962,855.46766 c 0,-0.59568 2.12336,-10.60987 4.71856,-22.25374 3.31769,-14.88542 5.26087,-21.5767 6.54522,-22.53825 1.41068,-1.05613 7.35457,-1.29462 26.10087,-1.04723 22.91629,0.30241 24.43946,0.44563 27.22811,2.5602 2.57868,1.95534 2.93052,2.87484 2.7698,7.23863 -0.21273,5.77567 -2.59338,9.62228 -7.50825,12.1317 l -3.35453,1.71275 2.61332,0.6559 c 4.57586,1.14847 5.2502,4.08336 3.19183,13.89184 -1.75673,8.37112 -1.95056,8.73127 -4.69928,8.73127 -1.57684,0 -4.14742,-1.00721 -5.71243,-2.23824 -2.68136,-2.10916 -2.80566,-2.58107 -2.15548,-8.18308 0.99427,-8.5667 0.40758,-8.87251 -17.86172,-9.31053 l -14.93183,-0.358 -1.23735,6.11779 c -0.68054,3.36479 -1.93774,7.21748 -2.79376,8.56155 -2.44946,3.84596 -12.91308,7.35254 -12.91308,4.32744 z"
           style="fill:#0068a3;fill-opacity:1" />
        <path
           inkscape:connector-curvature="0"
           id="path4991"
           d="m 455.84137,826.18091 c 2.93322,-2.93322 2.67739,-6.11363 -0.59179,-7.35656 -1.47744,-0.56173 -8.98009,-1.02132 -16.67255,-1.02132 h -13.98629 l -0.68501,3.40351 c -0.37675,1.87194 -0.91721,4.22822 -1.20101,5.23618 -0.47504,1.68714 0.73696,1.83266 15.26309,1.83266 14.38278,0 15.96443,-0.18534 17.87356,-2.09447 z"
           style="fill:#ffffff;fill-opacity:1" />
      </g>
      <g
         id="g5021">
        <path
           inkscape:connector-curvature="0"
           id="path4989"
           d="m 472.06028,854.19445 c 0.30265,-1.29596 1.95903,-8.64214 3.68083,-16.32486 3.59529,-16.04225 5.06938,-19.05766 11.35375,-23.22541 6.51343,-4.31966 13.86024,-5.5105 30.97598,-5.02083 15.96438,0.45671 19.38658,1.43451 23.55133,6.72913 2.92806,3.72242 2.7947,6.64099 -1.13106,24.75153 -3.30052,15.2261 -3.38846,15.44672 -6.15735,15.44672 -4.44676,0 -8.32764,-3.69571 -8.32764,-7.93028 v -3.58931 H 506.82127 487.6364 l -1.49803,3.38481 c -1.82742,4.12905 -7.55012,8.13478 -11.62159,8.13478 -2.58304,0 -2.92923,-0.33207 -2.4565,-2.35628 z"
           style="fill:#0068a3;fill-opacity:1" />
        <path
           inkscape:connector-curvature="0"
           id="path4987"
           d="m 530.04562,830.27772 c 2.32284,-11.24607 -1.24398,-13.24232 -21.88493,-12.24839 -14.41342,0.69405 -15.69673,1.75956 -18.40032,15.27747 l -0.66929,3.34646 h 19.81884 19.81885 z"
           style="fill:#ffffff;fill-opacity:1" />
      </g>
      <path
         inkscape:connector-curvature="0"
         style="fill:#0068a3;fill-opacity:1"
         d="m 553.5785,855.02411 c -6.61333,-2.87676 -6.96325,-6.889 -2.40193,-27.54185 4.35919,-19.73773 3.77527,-18.39429 7.65743,-17.61786 4.37812,0.87563 7.31198,3.97759 7.19333,7.60549 -0.0531,1.62318 -1.06824,7.09297 -2.25587,12.15509 -4.3562,18.56757 -4.37764,18.54787 20.17685,18.54787 12.52039,0 18.50596,0.36477 18.50596,1.12778 0,0.62029 -1.37751,2.50531 -3.06115,4.18894 l -3.06114,3.06116 -19.71622,-0.041 c -14.38006,-0.0298 -20.61504,-0.43199 -23.03726,-1.48563 z"
         id="path4985" />
    </g>
    <g
       transform="translate(4.7989807)"
       id="g5064">
      <circle
         style="fill:#0068a3;fill-opacity:1;stroke:none;stroke-width:0.68677;stroke-linecap:round;stroke-linejoin:round;stroke-miterlimit:4;stroke-dasharray:none;stroke-opacity:1"
         id="path5039"
         cx="367.24826"
         cy="721.43842"
         r="61.954819" />
      <path
         inkscape:connector-curvature="0"
         style="fill:#ffffff;fill-opacity:1"
         d="m 372.79166,769.74029 c 5.91513,-4.28489 16.51489,-18.78296 19.28301,-26.37477 1.74471,-4.78505 3.01992,-6.67132 5.03783,-7.45188 9.35511,-3.61871 13.78194,-8.3319 15.3934,-16.38917 1.2362,-6.18096 -5.55061,-10.03563 -9.8117,-5.5727 -1.00797,1.0557 -3.11701,4.11887 -4.68678,6.80702 -3.05488,5.23136 -5.94883,6.41295 -6.19962,2.53128 -0.29093,-4.50316 0.36472,-9.69423 1.38129,-10.93613 0.56241,-0.68707 4.76227,-2.49465 9.33304,-4.01685 5.16521,-1.72018 8.7239,-3.54014 9.40284,-4.80873 0.84258,-1.57438 0.30271,-4.45012 -2.36107,-12.57695 -5.32414,-16.24316 -9.22309,-16.55814 -11.33613,-0.91578 -0.66099,4.89322 -1.69247,9.48796 -2.29215,10.21054 -0.67911,0.81828 -3.78106,1.31378 -8.22458,1.31378 -13.61677,0 -15.54926,2.78851 -10.34658,14.92971 2.50043,5.83512 3.13764,8.62806 2.76099,12.10179 -0.82447,7.60393 -6.35395,12.00667 -16.70337,13.29974 -7.60289,0.94992 -10.20432,-0.57776 -12.79369,-7.51302 -2.57022,-6.884 -4.19941,-8.53489 -11.81553,-11.97298 -4.75552,-2.14674 -6.54522,-3.50869 -6.54522,-4.98088 0,-2.29888 1.92888,-3.29754 6.36907,-3.29754 3.17283,0 7.24499,-3.14615 7.24499,-5.59749 0,-1.96212 -2.74059,-4.17269 -9.16331,-7.39121 -3.02389,-1.51531 -5.49798,-3.21843 -5.49798,-3.78471 0,-1.38664 -1.09717,-1.56417 19.94215,3.22667 14.73548,3.35539 19.14702,4.01255 20.84307,3.10486 2.63463,-1.41001 2.749,-3.37709 0.31875,-5.48249 -2.36917,-2.05249 -40.43444,-13.64405 -43.37082,-13.20719 -3.38716,0.50392 -5.86849,4.6983 -8.19484,13.85236 -2.53265,9.96582 -2.6668,17.19667 -0.45709,24.63754 2.4293,8.18035 7.30799,12.69053 21.91474,20.25942 l 12.56682,6.51184 -0.20053,3.66533 c -0.11031,2.01592 -0.34593,5.9436 -0.52362,8.72818 -0.28406,4.45136 0.0318,5.36836 2.61521,7.59245 4.25876,3.66639 10.63733,3.46771 16.11741,-0.50204 z"
         id="path4981" />
      <path
         inkscape:connector-curvature="0"
         style="fill:#0068a3;fill-opacity:1;stroke:none"
         d="m 359.61853,767.92278 c -2.30653,-1.61556 -2.3986,-2.12503 -1.71063,-9.46664 0.56393,-6.01794 0.38096,-8.28747 -0.81537,-10.11329 -1.5152,-2.31248 -1.4599,-2.3577 3.1269,-2.55732 14.20129,-0.61808 23.7118,-8.03361 23.7118,-18.48856 0,-2.50585 -1.18952,-6.96347 -2.79262,-10.46511 -1.53595,-3.35495 -2.79263,-7.15467 -2.79263,-8.44382 0,-2.20081 0.54686,-2.37804 8.9566,-2.90271 12.55355,-0.78318 13.08422,-1.37855 14.70021,-16.4922 l 0.72783,-6.80703 2.99259,8.85413 c 1.64592,4.86977 2.99259,9.42664 2.99259,10.12638 0,0.69973 -2.47409,2.0816 -5.49799,3.07082 -10.17332,3.32804 -13.14951,5.32481 -14.34318,9.62307 -1.74209,6.27301 -1.36735,11.52203 0.99094,13.88032 3.83541,3.83541 6.85176,2.26261 12.03984,-6.27788 4.05646,-6.67765 4.76849,-7.17842 6.77283,-4.76333 1.01679,1.22514 0.6811,2.61621 -1.70442,7.06318 -2.58986,4.82785 -3.70691,5.83064 -8.71577,7.82423 -5.66236,2.25369 -5.80697,2.41984 -10.03102,11.52524 -6.52413,14.06351 -17.80599,26.50253 -24.04751,26.51404 -1.1678,0.002 -3.22024,-0.76444 -4.56099,-1.70352 z"
         id="path4979" />
      <path
         inkscape:connector-curvature="0"
         style="fill:#0068a3;fill-opacity:1"
         d="m 342.46134,739.89704 c -15.35124,-7.46813 -20.05581,-13.90304 -19.98912,-27.34113 0.0403,-8.13399 3.93154,-23.09783 6.23631,-23.98225 0.77428,-0.29712 10.17347,2.13825 20.88706,5.41194 10.71359,3.27369 19.05314,6.0942 18.53234,6.26781 -0.52081,0.1736 -8.18655,-1.34643 -17.03496,-3.37785 -17.90444,-4.11051 -22.75846,-4.53142 -23.70842,-2.05586 -1.23514,3.2187 1.56595,6.58071 7.96287,9.55745 8.06302,3.75204 8.2493,6.60791 0.43105,6.60791 -3.7994,0 -6.32033,1.67554 -7.08103,4.70642 -1.05881,4.2186 1.04424,6.62847 8.81783,10.10433 6.69879,2.99526 7.37372,3.59936 9.03751,8.08899 0.98894,2.66859 2.68837,6.14794 3.77651,7.73188 1.08814,1.58395 1.82854,2.84985 1.64531,2.81313 -0.18321,-0.0367 -4.46418,-2.07647 -9.51326,-4.53277 z"
         id="path4975" />
    </g>
  </g>
</svg>
