<?xml version="1.0" encoding="UTF-8" standalone="no"?>
<svg
   xmlns:svg="http://www.w3.org/2000/svg"
   xmlns="http://www.w3.org/2000/svg"
   xmlns:sodipodi="http://sodipodi.sourceforge.net/DTD/sodipodi-0.dtd"
   xmlns:inkscape="http://www.inkscape.org/namespaces/inkscape"
   sodipodi:docname="goflyride.svg"
   inkscape:version="1.1-dev (48d18c81, 2020-07-08)"
   id="svg1649"
   version="1.1"
   viewBox="0 0 74.476662 61.526203"
   height="61.526203mm"
   width="74.476662mm">
  <defs
     id="defs1645" />
  <sodipodi:namedview
     inkscape:window-maximized="0"
     inkscape:window-y="25"
     inkscape:window-x="0"
     inkscape:window-height="790"
     inkscape:window-width="1252"
     fit-margin-bottom="0"
     fit-margin-right="0"
     fit-margin-left="0"
     fit-margin-top="0"
     showgrid="false"
     inkscape:current-layer="layer1"
     inkscape:document-units="mm"
     inkscape:cy="117.14286"
     inkscape:cx="140"
     inkscape:zoom="0.35"
     inkscape:pageshadow="2"
     inkscape:pageopacity="0.0"
     borderopacity="1.0"
     bordercolor="#666666"
     pagecolor="#ffffff"
     id="base" />
  <g
     transform="translate(-68.594997,-117.40357)"
     id="layer1"
     inkscape:groupmode="layer"
     inkscape:label="Layer 1">
    <g
       transform="matrix(0.10702795,0,0,0.10702795,123.71884,-11.499717)"
       id="g4242">
      <g
         id="g4215">
        <g
           id="g4543"
           transform="matrix(-1.0338146,0,0,0.63369096,-487.59571,612.10793)"
           style="fill:#4d4d4d;fill-rule:evenodd"
           inkscape:export-xdpi="180"
           inkscape:export-ydpi="180">
          <path
             style="fill:#4d4d4d;fill-rule:evenodd;stroke:#ffffff;stroke-width:2.6697;stroke-miterlimit:4;stroke-dasharray:none;stroke-opacity:1"
             d="m -110.21379,1838.5659 c -12.85133,-0.5976 -33.75992,-1.5275 -46.46354,-2.0666 -12.7036,-0.5391 -26.60239,-1.1444 -30.88616,-1.3452 -4.28378,-0.2008 -17.57826,-0.7905 -29.54328,-1.3105 -69.83271,-3.0345 -86.96925,-3.7729 -102.05864,-4.3978 -5.17007,-0.2142 -15.20136,-0.716 -22.29176,-1.1152 -7.09039,-0.3993 -15.49395,-0.099 -20.06434,-0.4535 l -9.47894,-0.7348 -5.86507,-0.2172 c -13.74375,-0.5091 -138.40436,-102.8608 -170.78301,-133.954 -7.25667,-6.9685 -11.74522,-18.382 -12.6956,-26.5956 -1.50786,-13.0316 4.18734,-24.0639 17.43117,-33.7664 16.42605,-12.0339 37.27191,-19.5218 70.92818,-25.4779 13.88335,-2.4569 43.54694,-6.6499 44.40143,-6.2762 0.24785,0.1084 0.45065,0.437 0.45065,0.7302 0,0.5799 -1.57121,0.9269 -8.59442,1.8983 -36.52373,5.0514 -56.78882,9.181 -74.41697,15.1647 -26.89488,9.1294 -43.61768,22.389 -47.01119,37.2756 -1.75639,7.705 1.74652,17.9768 8.76436,25.7002 5.01849,5.5232 25.29089,23.2313 46.31021,40.4523 14.80589,12.1304 23.4539,18.8386 69.62456,54.0061 14.65984,11.1663 56.18142,40.066 61.66467,44.082 5.86139,4.2014 9.96218,8.0206 15.61214,7.0137 4.13085,-0.7362 10.97405,0.8475 11.41015,0.7801 0.47548,-0.073 -12.10287,-8.8619 -17.17005,-12.1456 -24.07948,-15.6044 -49.51019,-33.4515 -108.65107,-76.2506 -23.91261,-17.3051 -38.67,-29.1757 -63.78591,-51.3083 -8.74507,-7.7062 -10.81852,-9.7838 -13.2868,-13.3125 -7.21189,-10.3107 -7.34708,-19.1095 -0.44341,-28.8591 6.99043,-9.8721 20.23423,-18.3123 39.43696,-25.1329 12.98595,-4.6125 26.73512,-7.94 50.18776,-12.1463 33.57621,-10.0828 149.26557,-19.3788 63.70154,-13.6221 -0.91733,0 -1.15269,2.083 -0.17952,1.8645 0.51917,-0.1167 3.60107,-0.4748 6.84867,-0.7961 27.40398,-2.7103 46.25429,-5.3487 45.7736,-6.4067 -0.10724,-0.2359 -2.95781,-1.1447 -6.33459,-2.0196 -5.54508,-1.4364 -14.23926,-3.0598 -38.36867,-7.1641 -15.21408,-2.5878 -18.53169,-3.6898 -18.53169,-6.1552 0,-2.677 4.53711,-5.3561 9.18073,-5.8684 75.56011,-4.4095 101.09394,-1.7689 63.90684,0.9141 -37.58848,0.8687 -7.78405,5.5365 7.7536,7.546 12.81201,1.7223 18.84931,2.8342 25.78323,4.7488 5.47154,1.0763 16.55951,9.3529 12.85234,14.8947 -1.62155,2.3027 -4.11073,3.7199 -10.16658,5.7883 -9.16319,3.1297 -4.28146,1.4018 -40.8466,5.615 -18.20951,2.0981 5.55181,4.5581 -41.01467,10.9852 -11.09772,1.5317 -48.39891,9.0401 -62.97964,21.1671 -1.74364,1.4502 -1.78195,2.715 -1.79085,5.0027 -0.009,2.2582 0.2618,3.058 1.76739,5.2243 6.44219,9.2694 25.89373,20.951 59.02529,38.4956 18.60573,9.8526 32.97824,17.5857 59.22675,30.0932 23.50158,10.4272 43.93813,19.432 69.87633,31.9358 16.36458,6.8855 32.87289,16.1249 48.61214,23.4177 36.51776,18.4368 74.78295,37.5408 107.37795,54.1978 5.763589,2.8007 10.907662,5.4273 11.43127,5.8368 0.891009,0.6967 1.394938,4.0891 0.682342,4.5933 -0.779582,0.5517 -4.92796,0.4688 -26.319282,-0.5257 z m 21.598702,1.4959 -15.621792,-7.709 c -5.41173,-2.6706 -54.63389,-27.9062 -81.20406,-41.3451 -25.27606,-12.2952 -50.79477,-25.4345 -72.54851,-35.8427 -11.76847,-5.646 -65.62699,-30.4777 -81.94972,-38.5862 -18.3774,-9.1292 -36.54392,-19.0578 -54.96449,-29.4942 -22.83163,-12.9353 -39.42751,-24.7378 -46.1791,-32.8411 -2.66022,-3.1928 -3.90745,-6.2819 -3.92141,-9.7123 -0.0226,-5.5747 2.62792,-9.9179 8.70485,-14.2632 4.73479,-3.3858 22.47705,-10.4647 38.54414,-13.4031 32.34258,-5.9149 59.42366,-5.8445 80.44492,-9.7224 11.79567,-2.176 9.30387,-2.0906 -5.64009,0.2925 -12.88415,2.0546 -15.32961,-0.9169 -48.66647,4.2238 -16.96695,2.6164 -65.84318,13.5534 -72.07277,19.1113 -5.15778,4.6016 -7.30575,8.8152 -7.30575,14.3313 0,6.6657 2.86356,11.3329 11.54431,18.8162 15.57619,13.4273 60.32565,38.6917 113.30266,63.9677 9.30614,4.44 19.0957,9.1517 21.75461,10.4703 2.65889,1.3186 10.87729,5.3653 18.26311,8.9926 39.18129,19.2427 98.0496,48.5352 113.50277,56.4782 3.63537,1.8686 7.78889,3.9961 9.23003,4.7279 1.44115,0.7317 4.7514,2.4354 7.35615,3.7861 2.60473,1.3506 11.86656,6.153 20.58183,10.6718 8.71526,4.5189 16.56016,8.5455 17.43309,8.948 1.57605,0.7267 7.36794,5.1512 12.7017,5.2584 5.445251,0.7321 21.964673,4.4889 16.709992,2.8432 z m -175.217122,-17.258 c 0.75713,-0.5702 1.06546,-1.0827 0.76508,-1.2714 -0.27675,-0.1739 -6.25632,-3.8708 -13.28793,-8.2156 l -12.78475,-7.8995 -1.31546,0.8745 c -0.7235,0.481 -1.29749,1.0586 -1.27554,1.2834 0.0219,0.2249 2.01613,1.6287 4.4315,3.1196 12.75958,7.8758 21.41036,13.0644 21.78161,13.0644 0.22949,0 0.98795,-0.4299 1.68549,-0.9554 z m -50.01957,-31.2975 1.08957,-1.0829 -12.64064,-8.1351 c -6.95235,-4.4744 -12.93594,-8.1836 -13.29684,-8.2429 -0.36092,-0.06 -1.20801,0.3078 -1.88243,0.8158 l -1.22623,0.9237 12.99793,8.4021 c 7.14887,4.6212 13.19394,8.4021 13.4335,8.4021 0.23956,0 0.92588,-0.4873 1.52514,-1.0828 z m -49.52889,-31.6739 c 0.68376,-0.4547 1.2432,-0.9522 1.2432,-1.1056 0,-0.3029 -25.0161,-16.8111 -25.75795,-16.9977 -0.24848,-0.062 -0.96446,0.3958 -1.59106,1.0185 l -1.13927,1.1323 12.75922,8.3895 c 7.01756,4.6142 12.86798,8.3894 13.00094,8.3894 0.13293,0 0.80115,-0.3719 1.48492,-0.8264 z m -48.69646,-32.4459 1.27692,-0.9618 -1.85472,-1.2574 c -1.02011,-0.6916 -5.72222,-3.7958 -10.44914,-6.8981 -4.72692,-3.1023 -9.694,-6.3825 -11.03794,-7.2893 l -2.44353,-1.6487 -1.46355,1.0811 -1.46355,1.081 12.63555,8.4275 c 6.94957,4.6352 12.83526,8.4276 13.0793,8.4276 0.24406,0 1.01836,-0.4328 1.72066,-0.9619 z m -47.32744,-30.8112 1.65103,-0.9831 -8.34341,-5.723 c -6.37907,-4.3755 -15.50695,-11.3435 -17.24444,-13.164 -0.19366,-0.2029 -3.41558,1.4761 -3.41178,1.7779 0.0131,1.0496 23.93799,19.0753 25.31785,19.0753 0.20883,0 1.12267,-0.4423 2.03075,-0.9831 z m -37.92527,-30.9987 c 0.6453,-0.2374 1.25265,-0.4788 1.34967,-0.5366 0.097,-0.058 -0.423,-1.2808 -1.15558,-2.7181 -2.31647,-4.5444 -2.33656,-7.0809 -0.0961,-12.1314 0.52785,-1.1899 -1.64793,-1.5174 -2.6586,-0.4002 -2.76699,3.0588 -2.73061,10.1795 0.0756,14.7924 0.97911,1.6096 0.8988,1.5775 2.48505,0.9939 z m 11.25077,-29.4388 c 3.17915,-2.0017 5.64007,-3.8 5.46868,-3.9962 -0.41281,-0.4727 -0.681,-0.3453 -7.08604,3.3672 -5.3915,3.1249 -5.8754,3.5026 -5.14771,4.0175 0.62709,0.4439 0.87809,0.3181 6.76507,-3.3885 z m 21.42795,-12.3572 c 2.06857,-0.8549 3.6548,-1.6296 3.52495,-1.7215 -0.24754,-0.1751 -7.90428,2.8459 -7.90428,3.1188 0,0.3409 0.76217,0.098 4.37933,-1.3973 z m 40.44382,-22.4264 c -0.1985,-0.2273 -0.15232,-0.5452 0.10258,-0.7066 0.66967,-0.424 6.66918,-1.1933 7.26693,-0.9319 1.03099,0.451 0.0486,1.0414 -2.53348,1.5227 -3.3102,0.617 -4.37605,0.6425 -4.83603,0.1158 z"
             id="path4557"
             inkscape:connector-curvature="0"
             sodipodi:nodetypes="ssssssscssssscssssssscscsssssscccscssscccccssssccsccccccscsccssssssssssssscsscsscccccscscsscccscccssccscscssccccsccccsscccsccscsccscscscscsccsccccccc" />
        </g>
        <g
           id="g31172"
           transform="matrix(0.45447274,-0.12670751,0.11030164,0.43966858,-966.48504,716.58169)"
           inkscape:export-xdpi="180"
           inkscape:export-ydpi="180">
          <g
             id="g5045"
             transform="matrix(0.95007442,-0.30630549,0.27845392,0.96277514,-489.88883,440.22767)">
            <path
               inkscape:export-ydpi="180"
               inkscape:export-xdpi="180"
               inkscape:transform-center-y="-154.26614"
               inkscape:transform-center-x="-1.3651871"
               inkscape:connector-curvature="0"
               id="path4358"
               d="m -274.96504,1574.7877 c -16.26426,-2.5135 -24.95362,-20.0306 -17.14122,-34.5555 1.73463,-3.2251 2.71712,-6.2878 2.23249,-6.9597 -0.47601,-0.6598 -2.82862,-0.9917 -5.228,-0.7375 -2.39941,0.2541 -15.75162,1.3988 -29.67157,2.5437 -108.80834,8.9486 -162.00809,13.3797 -162.63781,13.5462 -0.84693,0.224 -4.58797,-3.8331 -12.14664,-13.1726 l -5.28166,-6.5262 4.05533,2.607 c 2.23044,1.4339 5.56925,3.6436 7.4196,4.9106 4.05876,2.7789 -1.63923,3.4503 65.54006,-7.7241 102.42918,-17.038 147.96354,-24.5854 174.3337,-28.8966 25.68462,-4.1991 26.72982,-4.4442 27.515,-6.4517 0.4489,-1.1477 0.60402,-2.889 0.34475,-3.8692 -0.25929,-0.9805 -0.24362,-5.5337 0.0348,-10.1185 0.27841,-4.5847 0.13297,-8.8532 -0.32317,-9.4856 -0.49099,-0.6805 -10.65773,-1.0291 -24.91732,-0.8542 -13.24838,0.1625 -25.75655,0.1462 -27.79596,-0.036 l -3.70796,-0.3317 3.36219,-0.9761 c 1.84926,-0.5367 15.08595,-2.3704 29.41486,-4.0751 l 26.05261,-3.0993 2.29196,-5.1046 c 9.40935,-20.9556 19.22151,-32.6205 34.06099,-40.4927 3.00808,-1.5957 5.72949,-3.3486 6.04752,-3.8954 0.31803,-0.5466 -3.90257,-22.95 -9.37909,-49.785 -5.47652,-26.835 -9.73553,-49.1724 -9.46442,-49.6384 0.27107,-0.4661 0.82765,-0.6525 1.2367,-0.4149 0.68957,0.4011 26.32039,78.9193 29.28705,89.7188 0.72844,2.6519 1.83342,5.2929 2.45541,5.8687 0.62202,0.576 4.09061,0.9581 7.70799,0.8487 15.48816,-0.4669 31.16546,4.9574 45.85086,15.8645 4.55806,3.3854 8.26359,5.4138 9.35991,5.1239 0.99815,-0.264 11.975229,-4.7622 24.39355,-9.9959 26.720166,-11.2614 29.583241,-12.3644 29.815289,-11.4869 0.196445,0.7427 -5.857508,4.2864 -30.563982,17.8905 -9.247736,5.092 -17.290598,9.7609 -17.873035,10.3754 -0.845644,0.8922 -0.07947,2.6979 3.803159,8.9636 2.674173,4.3153 5.035986,8.5258 5.248486,9.3565 0.212453,0.8307 1.166735,2.1425 2.120511,2.9152 1.65797,1.3431 2.435596,1.1468 17.695661,-4.4685 8.778804,-3.2305 31.868021,-11.7291 51.309395,-18.8858 42.220784,-15.5423 82.934703,-30.4838 131.530356,-48.2695 53.98282,-19.7575 52.63009,-19.2123 53.74716,-21.6651 4.66672,-10.2475 5.4275,-11.5091 5.37669,-8.917 -0.028,1.4297 -0.92811,6.5552 -2.00017,11.39 l -1.94922,8.7905 -11.03896,5.1939 c -6.07146,2.8566 -27.40809,12.8206 -47.41475,22.142 -20.006692,9.3214 -50.051287,23.3196 -66.765786,31.107 -16.714488,7.7874 -35.57698,16.5462 -41.9166587,19.4642 -6.3396425,2.9179 -11.9730833,5.9027 -12.5187643,6.6327 -0.774823,1.0367 0.07097,1.9722 3.8617509,4.2715 9.0174913,5.4696 12.8680788,12.0568 12.6351779,21.6148 -0.1844614,7.5717 -4.397019,15.1549 -10.3695609,18.6666 -18.5084889,10.8828 -39.2890439,-3.1338 -36.1293629,-24.3696 0.458053,-3.0785 0.474706,-5.8055 0.03703,-6.0601 -0.437697,-0.2546 -8.787363,3.1742 -18.554815,7.6196 -13.581507,6.1812 -18.521551,8.8793 -21.000749,11.4696 -1.782954,1.8628 -5.241689,5.505 -7.686081,8.0936 -22.064531,23.3661 -56.100441,36.6344 -89.082011,34.7269 -10.0708,-0.5825 -25.55333,-3.541 -34.36658,-6.5671 -6.47339,-2.2227 -7.91384,-2.273 -24.50771,-0.8578 -9.69656,0.827 -18.40284,1.708 -19.34728,1.9578 -2.2239,0.5881 -1.74388,2.1794 1.87828,6.2267 3.83111,4.2807 6.27298,13.3302 5.2104,19.3096 -0.95347,5.3656 -4.62517,11.4626 -8.85342,14.7016 -3.86797,2.9632 -13.19097,5.5172 -17.63305,4.8309 z"
               style="fill:#4d4d4d;fill-opacity:1;fill-rule:nonzero;stroke:#000000;stroke-width:1;stroke-miterlimit:4;stroke-dasharray:none;stroke-opacity:1"
               transform="matrix(2.3857428,0.68754409,-0.60380756,2.4878515,2544.1162,-1479.9023)" />
            <ellipse
               inkscape:export-ydpi="180"
               inkscape:export-xdpi="180"
               transform="matrix(2.4596434,-0.02848758,-0.0242568,2.5798198,2544.1162,-1479.9023)"
               ry="88.081535"
               rx="89.281204"
               cy="1386.4489"
               cx="-500.80838"
               id="path31403"
               style="opacity:1;fill:#ffffff;fill-opacity:1;fill-rule:evenodd;stroke:none;stroke-width:4;stroke-linejoin:round;stroke-miterlimit:4;stroke-dasharray:none;stroke-opacity:1" />
            <path
               inkscape:connector-curvature="0"
               id="path32937"
               d="m 1242.2493,2364.8981 c -14.2453,-2.6662 -33.7771,-10.0727 -49.6784,-18.8381 -23.3121,-12.8508 -50.7723,-37.3857 -57.7908,-51.6345 -2.8704,-5.8274 -3.2266,-7.5206 -3.3744,-16.0397 -0.1352,-7.7966 -0.9921,-12.6255 -4.7229,-26.6161 -6.9711,-26.1416 -13.114,-51.4822 -16.0984,-66.4085 -1.4845,-7.425 -3.9918,-17.6195 -5.5718,-22.6543 -3.6474,-11.6229 -4.7525,-18.6465 -5.9852,-38.0382 -0.7662,-12.0534 -1.3429,-15.8696 -2.5294,-16.7372 -2.5168,-1.8403 -3.4838,-8.4484 -2.7892,-19.0604 0.5779,-8.8306 0.9716,-10.3975 3.3918,-13.5 1.9815,-2.5402 2.9181,-5.1621 3.3899,-9.49 0.7712,-7.0738 2.5983,-10.2675 6.3431,-11.0876 1.5055,-0.3296 3.2148,-0.74 3.7984,-0.9119 0.5836,-0.172 2.054,-4.0224 3.2675,-8.5566 4.6135,-17.2372 19.195,-41.9782 32.5112,-55.163 24.0756,-23.838 55.4441,-42.3482 84.1983,-49.6844 27.3068,-6.9669 63.617,-6.9669 90.9239,0 29.0611,7.4146 62.8316,27.5158 85.4073,50.837 14.263,14.7341 27.847,39.1601 32.8177,59.0112 0.7078,2.8267 1.4597,3.5857 4.0841,4.1224 1.7691,0.3618 3.8867,1.214 4.7056,1.8937 1.91,1.5851 3.5106,7.3604 3.5177,12.6926 0,3.0135 0.7173,5.019 2.5666,7.2168 2.4164,2.8717 2.5716,3.7394 2.75,15.3684 0.1571,10.2464 -0.1046,12.7734 -1.5521,14.9845 -1.3427,2.051 -1.9822,6.4796 -2.7944,19.3525 -1.0229,16.2107 -2.7354,28.1499 -4.8102,33.5343 -0.5574,1.4464 -2.193,8.8714 -3.6348,16.5 -3.4121,18.0534 -9.1405,42.2861 -16.7532,70.8702 -4.4749,16.8026 -6.3007,25.5709 -6.7759,32.5411 -0.5559,8.154 -1.1286,10.4382 -3.9393,15.7117 -6.0509,11.3526 -26.6571,30.9888 -46.4612,44.274 -14.4721,9.7084 -35.1656,18.9331 -54.1225,24.1266 -7.2083,1.9749 -10.7778,2.21 -37.4674,2.4683 -21.7983,0.211 -31.4114,-0.072 -36.8216,-1.0848 z"
               style="fill:#e6e6e6;stroke:#000000;stroke-width:2.46553;stroke-miterlimit:4;stroke-dasharray:none;stroke-opacity:1" />
            <path
               inkscape:connector-curvature="0"
               id="path32935"
               d="m 1216.2156,2252.3439 c 5.5836,-1.7723 12.3118,-4.8484 10.8207,-4.9473 -0.2941,-0.019 -3.2191,0.909 -6.5,2.0633 -8.8767,3.123 -15.8869,2.3879 -26.698,-2.7997 -18.8108,-9.026 -36.7674,-24.6648 -36.7674,-32.0215 0,-2.7575 2.3161,-2.9076 12,-0.7775 10.1484,2.2322 11.4197,1.6064 2,-0.9845 -15.7225,-4.3245 -28.3062,-9.8013 -38.8505,-16.9089 -2.9427,-1.9836 -5.5366,-3.6066 -5.7642,-3.6066 -1.7354,0 11.0504,16.8056 18.9098,24.8549 9.1811,9.4031 43.3875,31.4019 55.638,35.782 4.9974,1.7868 7.917,1.6612 15.2116,-0.6542 z"
               style="fill:#cfcfcf" />
            <path
               inkscape:connector-curvature="0"
               id="path32933"
               d="m 1231.8333,2238.9087 c 8.3943,-3.1636 15.9863,-5.4742 16.8711,-5.1346 0.886,0.3399 4.5874,-0.8063 8.2377,-2.5509 3.6459,-1.7425 9.0155,-3.9213 11.9325,-4.8416 2.917,-0.9204 5.2795,-1.9766 5.25,-2.3469 -0.03,-0.3705 -0.054,-6.1203 -0.054,-12.7774 v -12.1039 l -7.8605,7.3539 c -9.5861,8.9683 -17.3665,13.7517 -26.0583,16.0206 -7.588,1.9808 -20.006,2.3384 -25.0878,0.7224 -1.9952,-0.6344 -12.1359,-1.1828 -23.6451,-1.2787 -22.9141,-0.1909 -22.215,-0.6338 -12.3483,7.8229 10.6484,9.1266 25.2527,15.8688 33,15.2346 2.475,-0.2026 11.3681,-2.9568 19.7624,-6.1204 z"
               style="fill:#ffffff" />
            <path
               sodipodi:nodetypes="csssscsssssscc"
               inkscape:connector-curvature="0"
               id="path31160"
               d="m 1230.0552,2035.9835 c 4.4034,-2.7293 14.5869,-15.9079 31.5852,-21.3846 16.9986,-5.4763 33.9756,-5.8788 56.6549,-1.3432 8.4559,1.6913 11.7543,0.8077 17.8947,-4.7927 5.5274,-5.0408 10.1398,-11.9196 13.3426,-19.8977 3.2918,-8.1998 3.5245,-13.0837 0.7989,-16.7703 -3.255,-4.4027 -9.9133,-9.27 -17.3489,-12.6814 -27.1751,-12.4683 -56.9244,-16.633 -86.7213,-12.1405 -12.1363,1.8299 -35.4098,9.9803 -44.3727,15.54 -14.3768,8.9177 -25.8115,19.8298 -33.119,31.606 -10.0528,16.2001 -9.143,25.8808 -4.43,34.2441 3.6443,6.4664 14.8,10.6634 31.639,13.755 5.6779,1.0425 17.5291,2.3932 23.6983,0.088 z"
               style="fill:#ffffff" />
            <path
               inkscape:connector-curvature="0"
               id="path4205"
               d="m 1242.6258,2363.747 c -20.4918,-3.6992 -49.543,-16.7184 -68.0549,-30.4984 -14.8924,-11.0858 -35.2824,-31.5584 -38.9236,-39.0813 -2.8947,-5.9805 -4.6203,-17.0433 -2.831,-18.1491 0.5491,-0.3394 1.7892,1.5114 2.7559,4.1128 2.2728,6.1164 6.4326,11.4777 14.4987,18.6867 13.547,12.1073 40.7717,31.3556 53.3285,37.7043 7.1585,3.6193 26.3734,10.1411 27.6158,9.3732 0.51,-0.3151 0.063,-3.51 -1.0211,-7.2975 -2.6965,-9.421 -7.1167,-29.9913 -11.8697,-55.2369 -2.2263,-11.825 -4.2839,-22.5176 -4.5725,-23.7615 -0.3943,-1.6991 0.04,-2.48 1.7471,-3.1407 8.6246,-3.3379 12.4934,-5.243 21.9881,-10.8279 12.6214,-7.4242 27.649,-14.8693 33.2808,-16.4885 2.2017,-0.6329 4.8252,-1.6969 5.8301,-2.3642 2.631,-1.7474 6.637,-0.433 24.7731,8.1284 24.2004,11.4242 33.3748,13.3369 45.0713,9.3966 11.1023,-3.7401 32.2374,-19.8667 29.5538,-22.5503 -0.2403,-0.2402 -6.0142,0.4732 -12.8311,1.5854 -14.731,2.4036 -33.3517,2.6326 -43.2658,0.5321 -11.755,-2.4905 -21.9743,-8.2016 -33.0042,-18.4448 -6.1831,-5.7422 -10.571,-9.0646 -11.9714,-9.0646 -1.3986,0 -4.5873,2.4098 -8.6817,6.5612 -16.2474,16.4736 -31.9109,21.5108 -52.9711,17.0345 -4.125,-0.8767 -8.925,-1.5944 -10.6666,-1.5949 -1.7417,-4e-4 -3.3347,-0.5049 -3.5401,-1.1211 -0.2054,-0.6161 -5.8753,-1.9702 -12.5998,-3.009 -19.4645,-3.0071 -37.4837,-9.4333 -51.0384,-18.2017 -8.1091,-5.2458 -19.1956,-15.4141 -23.2825,-21.3543 -6.9223,-10.0611 -10.4181,-24.9625 -11.8945,-50.701 -0.7365,-12.8384 -1.3215,-17.1533 -2.4408,-18 -3.2949,-2.4927 -4.4737,-7.8991 -3.6038,-16.5281 0.6917,-6.8622 1.3469,-8.9481 3.9479,-12.57 1.9742,-2.7489 3.1274,-5.567 3.1425,-7.6791 0.038,-5.3274 1.7202,-11.1762 3.6123,-12.5597 3.3036,-2.4157 13.6205,-1.527 25.1323,2.1648 14.1419,4.5352 23.8688,6.9387 40.2315,9.9407 84.1167,15.433 180.0527,11.4864 254.3801,-10.4644 10.5647,-3.1201 20.0363,-3.7964 22.9838,-1.6411 1.9674,1.4386 3.5766,7.2872 3.6123,13.1288 0.016,2.6241 0.8649,5.0083 2.587,7.2661 2.0436,2.6793 2.7456,5.129 3.4633,12.0847 0.8492,8.2312 0.7563,9.0356 -1.6437,14.2339 -2.2114,4.7897 -2.6593,7.6005 -3.4279,21.5097 -0.9658,17.4791 -2.4554,26.7706 -6.3501,39.6089 -1.4,4.6151 -3.8985,14.9161 -5.5522,22.8911 -3.5419,17.0806 -9.2665,40.5174 -15.7205,64.3599 -3.8989,14.4034 -4.6551,18.6569 -4.7359,26.6401 -0.084,8.3444 -0.4509,10.2299 -3.0122,15.5 -3.8137,7.8469 -23.8832,28.0724 -39.084,39.3878 -18.9506,14.1067 -47.7582,26.8903 -68.881,30.5665 -11.8348,2.0598 -54.5208,2.0158 -66.0641,-0.068 z"
               style="fill:#808080" />
            <path
               inkscape:connector-curvature="0"
               id="path4203"
               d="m 1380.0709,2274.3608 c 0,-0.55 -0.1984,-1 -0.441,-1 -0.2425,0 -0.7191,0.45 -1.059,1 -0.3399,0.55 -0.1415,1 0.441,1 0.5825,0 1.059,-0.45 1.059,-1 z"
               style="fill:#cccccc" />
            <path
               inkscape:connector-curvature="0"
               id="path4201"
               d="m 1402.5709,2240.4813 c 4.95,-3.4484 9.7875,-7.186 10.75,-8.3059 1.9061,-2.2177 2.3371,-6.3337 0.7651,-7.3053 -0.6066,-0.3749 -0.7609,0.5114 -0.4018,2.307 0.6677,3.3383 -0.3009,4.1772 -24.8633,21.5343 -7.5625,5.3441 -13.75,9.9521 -13.75,10.2401 0,0.4985 7.5482,-4.5712 27.5,-18.4702 z"
               style="fill:#cccccc" />
            <path
               inkscape:connector-curvature="0"
               id="path4199"
               d="m 1407.1985,2254.6108 c 1.2439,-1.5861 1.2085,-1.6214 -0.3776,-0.3776 -1.6657,1.3064 -2.1955,2.1276 -1.3724,2.1276 0.2076,0 0.9951,-0.7875 1.75,-1.75 z"
               style="fill:#cccccc" />
            <path
               inkscape:connector-curvature="0"
               id="path4197"
               d="m 1173.0709,2290.7844 c -20.6413,-14.6718 -23.1051,-16.6393 -22.8008,-18.2078 0.1655,-0.8525 0.7943,-1.7144 1.3975,-1.9152 0.6032,-0.2008 8.3657,5.0402 17.25,11.6466 11.5786,8.6098 16.1533,12.5838 16.1533,14.0322 0,1.1113 -0.3375,1.9952 -0.75,1.9641 -0.4125,-0.031 -5.475,-3.4151 -11.25,-7.5199 z"
               style="fill:#cccccc" />
            <path
               inkscape:connector-curvature="0"
               id="path4195"
               d="m 1171.5709,2272.2395 c -6.05,-4.3592 -14.7433,-10.6265 -19.3185,-13.9274 -5.7264,-4.1315 -8.2156,-6.5355 -7.9885,-7.715 0.6485,-3.367 3.4791,-2.1122 15.8185,7.0121 21.885,16.183 24.9885,18.7675 24.9885,20.8101 0,1.0678 -0.5625,1.8975 -1.25,1.8437 -0.6875,-0.054 -6.2,-3.6643 -12.25,-8.0235 z"
               style="fill:#cccccc" />
            <path
               inkscape:connector-curvature="0"
               id="path31156"
               d="m 1163.2663,2247.9403 c -11.1676,-7.9027 -21.1801,-15.1607 -22.25,-16.129 -2.2689,-2.0533 -2.5589,-5.2778 -0.5442,-6.051 1.2945,-0.4967 29.4784,19.404 40.8488,28.8434 4.4604,3.7029 6.3106,7.7897 3.5,7.731 -0.6875,-0.014 -10.3871,-6.4918 -21.5546,-14.3944 z"
               style="fill:#cccccc" />
            <path
               inkscape:connector-curvature="0"
               id="path31154"
               d="m 1248.9182,2364.3842 c -34.8618,-4.3962 -79.4087,-29.5465 -105.0006,-59.2812 -6.737,-7.8276 -10.3452,-14.769 -11.3701,-21.8736 -0.9165,-6.3532 0.9147,-7.029 3.1545,-1.1641 1.0803,2.8287 4.3366,7.4043 8.1347,11.4305 11.8041,12.5129 44.0784,35.9141 60.7342,44.0365 16.3924,7.994 35.9579,12.1677 57.491,12.264 l 14.509,0.065 0.2578,-60.75 0.2577,-60.75 h 2.6402 c 1.4521,0 9.6611,3.3259 18.2423,7.3908 19.1949,9.0928 26.6523,11.7008 35.3535,12.3637 8.7216,0.6646 17.014,-2.0322 26.9908,-8.7775 13.689,-9.2553 20.8603,-17.8492 16.3414,-19.5833 -0.779,-0.2989 -7.4893,0.4279 -14.9117,1.615 -18.617,2.9778 -36.628,2.4453 -48.0621,-1.4208 -10.5623,-3.5713 -15.6833,-6.7175 -24.6099,-15.119 -4.125,-3.8824 -8.7375,-7.8366 -10.25,-8.787 -2.1414,-1.3456 -2.75,-2.4975 -2.75,-5.2049 0,-4.421 -1.4927,-4.452 -6.57,-0.1369 -17.4437,14.8254 -30.5491,21.6641 -47.4224,24.7461 -11.3046,2.0649 -16.3505,2.084 -25.0076,0.095 -2.475,-0.5686 -9.225,-1.7705 -15,-2.6708 -36.6022,-5.7061 -67.8071,-26.7372 -75.9138,-51.1635 -3.1195,-9.3991 -5.0061,-22.026 -5.6277,-37.6643 -0.701,-17.6353 -1.1381,-20.7428 -2.8269,-20.0947 -1.8777,0.7205 -4.3679,-6.3782 -3.5387,-10.0879 0.3688,-1.65 0.7237,-5.07 0.7888,-7.6 0.088,-3.4158 0.9014,-5.681 3.1606,-8.7997 2.3704,-3.2722 3.1768,-5.6411 3.6517,-10.7266 0.8786,-9.4082 2.3823,-10.89 10.9698,-10.81 5.0876,0.047 9.1383,0.8961 15.8362,3.3182 22.2694,8.0529 64.0476,15.3332 104,18.123 18.5682,1.2965 68.4838,1.2611 87.6705,-0.062 27.2515,-1.8796 67.9878,-8.5076 92.8295,-15.1037 25.5754,-6.791 26.9273,-7.0753 30.4793,-6.4089 4.6117,0.8652 6.1372,3.4863 6.9438,11.9306 0.4643,4.8612 1.3725,7.9162 3.1161,10.4821 1.5865,2.3347 2.4693,5.049 2.4847,7.6393 0.013,2.2098 0.3994,5.6329 0.8583,7.6069 0.6856,2.9484 0.3244,4.7127 -2.0238,9.8858 -2.2846,5.0329 -2.8591,7.7249 -2.8618,13.411 -0.01,19.1507 -4.0193,42.4347 -9.29,53.9411 -1.3033,2.8452 -5.0425,8.3231 -8.3094,12.1731 -3.2668,3.85 -8.0252,10.1932 -10.5741,14.096 -5.8609,8.9742 -15.0556,19.9795 -20.9671,25.0959 -9.2408,7.9979 -40.1644,27.3081 -43.7315,27.3081 -1.1035,0 -2.2865,0.4532 -2.6289,1.0071 -1.1159,1.8056 -6.701,4.1881 -11.3902,4.8588 l -4.5888,0.6564 -1.229,5.9889 c -0.676,3.2938 -3.4855,17.5793 -6.2433,31.7456 -2.7578,14.1662 -6.4201,31.4046 -8.1384,38.3075 -1.7182,6.903 -2.8785,12.7964 -2.5784,13.0965 0.9331,0.9331 16.7539,-4.7352 25.6725,-9.1981 15.8765,-7.9445 43.5009,-27.6289 57.2479,-40.7932 6.2059,-5.9429 11.7139,-14.622 11.7423,-18.5028 0.01,-0.7334 0.5723,-1.1358 1.2598,-0.8942 2.1092,0.7409 1.1616,11.1488 -1.5554,17.0835 -4.6973,10.2601 -22.2439,27.7822 -42.3693,42.3099 -15.5219,11.2047 -42.8585,23.5208 -61.8531,27.8671 -8.0816,1.8492 -52.5235,2.89 -63.6249,1.49 z m 117.1527,-67.9965 c 0,-1.3186 2.9042,-4.1336 8.75,-8.4816 4.8125,-3.5794 9.2016,-6.8804 9.7535,-7.3356 4.3998,-3.6286 14.1262,-10.2093 15.0896,-10.2093 2.4091,0 2.1825,2.8383 -0.4185,5.2413 -1.471,1.359 -5.8246,4.6336 -9.6746,7.2769 -3.85,2.6432 -10.2581,7.2079 -14.2403,10.1438 -7.9218,5.8404 -9.2597,6.3265 -9.2597,3.3645 z m -198.8328,-10.6215 c -14.1135,-10.0447 -18.7096,-14.405 -15.1839,-14.405 1.1285,0 31.4871,22.3341 32.428,23.8565 2.1652,3.5032 -3.0851,0.6256 -17.2441,-9.4515 z m 198.8328,-7.3289 c 0,-1.0582 1.3666,-2.9707 3.0368,-4.25 1.6702,-1.2794 4.4827,-3.4886 6.25,-4.9095 1.7673,-1.4208 9.247,-6.9979 16.6217,-12.3935 12.56,-9.1893 13.4944,-9.6927 14.7653,-7.9546 1.1839,1.6191 1.0682,2.1433 -0.9085,4.1147 -3.4021,3.3929 -37.0755,27.2475 -38.5153,27.2846 -0.6875,0.018 -1.25,-0.8336 -1.25,-1.8917 z m -195.5,-7.7086 c -21.7752,-15.421 -25.5,-18.3207 -25.5,-19.852 0,-0.8335 0.6393,-1.5155 1.4206,-1.5155 1.8895,0 38.1289,27.2242 37.9044,28.475 -0.3707,2.0655 -2.2012,1.1244 -13.825,-7.1075 z m 194.5,-9.8828 c 0,-0.9617 1.5411,-3.202 3.4247,-4.9784 5.2456,-4.9472 40.4198,-30.5063 41.9825,-30.5063 1.5893,0 2.754,2.4164 2.0496,4.2522 -0.6092,1.5874 -43.0042,31.8167 -45.5579,32.4845 -1.3305,0.3479 -1.8989,-0.027 -1.8989,-1.252 z m -202.5462,-14.2347 c -11.4273,-8.1125 -21.4304,-15.757 -22.2291,-16.9877 -4.9994,-7.7032 10.8969,2.1763 39.0253,24.2539 5.1083,4.0093 7.367,7.4838 4.8653,7.4838 -0.4866,0 -10.2343,-6.6375 -21.6615,-14.75 z"
               style="fill:#666666"
               sodipodi:nodetypes="csssssscccsscsccsssssscssscscsscsscssssccscscsssccccscsssccsssccsscsscsssscssccssscsssscsscsccssccss" />
            <path
               inkscape:connector-curvature="0"
               id="path32951"
               d="m 1368.0709,2295.4708 c 0,-0.7499 26.9621,-21.3718 30.75,-23.519 0.7597,-0.4307 1.25,-0.1195 1.25,0.7935 0,1.2275 -29.8713,23.6159 -31.5092,23.6159 -0.2699,0 -0.4908,-0.4007 -0.4908,-0.8904 z"
               style="fill:#565656" />
            <path
               inkscape:connector-curvature="0"
               id="path32949"
               d="m 1167.6625,2285.3265 c -15.255,-10.8389 -16.2434,-11.6468 -15.3467,-12.5435 0.5494,-0.5494 30.7551,21.24 30.7551,22.1855 0,1.0846 -2.6122,-0.55 -15.4084,-9.642 z"
               style="fill:#565656" />
            <path
               inkscape:connector-curvature="0"
               id="path32947"
               d="m 1169.4954,2268.9772 c -20.9701,-14.62 -23.4245,-16.5251 -23.4245,-18.1824 0,-1.8245 0.3796,-1.5798 17.8905,11.5353 6.2648,4.6921 12.8654,9.5268 14.6679,10.7437 3.2095,2.1667 4.9889,4.1237 4.2918,4.72 -0.1926,0.1647 -6.2342,-3.8028 -13.4257,-8.8166 z"
               style="fill:#565656" />
            <path
               inkscape:connector-curvature="0"
               id="path32945"
               d="m 1368.0709,2277.497 c 0,-1.0299 33.7545,-26.7206 36.4839,-27.768 0.7226,-0.2773 1.5896,-0.058 1.9267,0.4875 0.7689,1.2441 -4.2037,5.2512 -21.8312,17.5924 -14.773,10.3428 -16.5794,11.3983 -16.5794,9.6881 z"
               style="fill:#565656" />
            <path
               inkscape:connector-curvature="0"
               id="path32943"
               d="m 1163.2063,2246.4133 c -20.2106,-14.4414 -23.9871,-17.5337 -22.8283,-18.6925 1.0835,-1.0835 3.8506,0.7432 24.1514,15.9444 16.8465,12.6145 21.6206,16.8235 18.8749,16.6405 -0.4584,-0.03 -9.5474,-6.2822 -20.198,-13.8924 z"
               style="fill:#565656" />
            <path
               inkscape:connector-curvature="0"
               id="path32941"
               d="m 1367.0709,2259.4282 c 0,-1.2389 5.0978,-5.2888 25.8453,-20.5325 12.8037,-9.4072 17.6385,-12.4507 18.4654,-11.6239 1.692,1.6921 -2.3923,5.1577 -23.5364,19.9707 -17.991,12.6039 -20.7743,14.2365 -20.7743,12.1857 z"
               style="fill:#565656" />
            <path
               inkscape:connector-curvature="0"
               id="path31150"
               d="m 1338.5709,2216.6493 c -6.5811,-0.6182 -18.223,-3.191 -23.4829,-5.1896 -6.3797,-2.4241 -13.5874,-6.8917 -23.3769,-14.4898 -12.2094,-9.4763 -13.9345,-10.6087 -16.1616,-10.6087 -1.1428,0 -6.7546,3.6404 -12.4705,8.0898 -11.3921,8.8679 -25.9343,16.4709 -34.3381,17.9527 -2.8435,0.5014 -6.97,1.3612 -9.17,1.9107 -6.2832,1.5694 -14.6928,1.2118 -32.5,-1.3819 -28.8744,-4.2057 -48.0021,-12.4947 -64.8703,-28.1118 -15.6175,-14.459 -20.3667,-29.6065 -21.7773,-69.4595 -0.6348,-17.9357 -1.5039,-23.1396 -2.8448,-17.0347 -1.3429,6.1146 -2.5893,0.982 -1.9342,-7.9653 0.4956,-6.7686 1.1345,-9.2568 3.1365,-12.2154 1.7184,-2.5394 2.7615,-5.8626 3.2958,-10.5 0.9949,-8.6362 1.6493,-10.1599 4.6907,-10.9232 3.8566,-0.968 14.7638,0.2204 17.9388,1.9546 6.5756,3.5914 28.0184,9.0909 51.2389,13.1414 7.9057,1.379 14.7221,2.2922 15.1475,2.0293 0.4253,-0.2629 7.2857,0.4039 15.2452,1.4817 28.1544,3.8126 70.8201,5.0084 106.7332,2.9915 26.7638,-1.5031 69.5867,-7.7328 90.5,-13.1655 4.4,-1.1431 9.8,-2.3987 12,-2.7904 2.2,-0.3917 8.3855,-1.9028 13.7455,-3.3581 9.8291,-2.6686 15.2598,-3.2478 17.442,-1.8602 2.0003,1.2719 3.3125,6.0592 3.3125,12.0851 0,4.4792 0.5241,6.451 2.3849,8.9732 3.5451,4.8051 4.5121,17.8758 1.7871,24.156 -1.4713,3.3907 -2.1193,7.9511 -2.6289,18.5 -0.8122,16.8133 -1.903,25.3512 -4.5992,36 -2.9587,11.6859 -6.1732,17.5148 -14.597,26.4694 -9.0946,9.6676 -18.7679,16.2896 -29.1678,19.9673 -4.2707,1.5102 -8.9314,3.5101 -10.357,4.4442 -3.6666,2.4025 -23.6439,7.2664 -35.0843,8.5421 -9.5469,1.0645 -11.4143,1.0999 -19.2378,0.3651 z"
               style="fill:#808080" />
            <path
               sodipodi:nodetypes="csccsssscsssccccccssccsccssssccsccscccccsccssscscsssscscsssssscssc"
               inkscape:connector-curvature="0"
               id="path31148"
               d="m 1253.5709,2363.3483 c -27.388,-2.4008 -59.4977,-16.4114 -85.5,-37.3067 -17.7867,-14.2934 -33.0687,-32.4294 -32.9696,-39.1267 0.03,-2.0393 0.038,-2.0397 1.1247,-0.054 4.8893,8.9362 37.805,35.23 60.5679,48.383 9.4836,5.4799 23.24,10.7294 36.263,13.8382 9.2933,2.2185 13.3692,2.5672 35.1051,3.0038 34.3147,0.6891 50.4571,-1.4858 71.5528,-9.6405 21.6132,-8.3548 63.2154,-38.7428 76.1333,-55.611 2.1991,-2.8717 2.2563,-2.8879 1.6699,-0.4735 -3.0828,12.6931 -23.4336,33.9272 -48.8448,50.965 -15.332,10.2799 -41.5916,21.2486 -58.5892,24.473 -9.8251,1.8638 -42.6566,2.7637 -56.5131,1.5491 z m 80,-148.9254 c -2.2,-0.4524 -6.475,-1.3257 -9.5,-1.9409 -10.2761,-2.0896 -21.2956,-8.6631 -42.6415,-25.437 -2.8115,-2.2094 -7.5828,-2.4826 -10.2122,-0.5847 -1.0676,0.7705 -6.5065,4.8884 -12.0865,9.1509 -5.58,4.2625 -10.5442,7.75 -11.0316,7.75 -0.4875,0 -1.6061,-2.5875 -2.4858,-5.75 -0.8798,-3.1625 -3.1617,-10.7271 -5.071,-16.8101 -1.9092,-6.0831 -3.4714,-11.7655 -3.4714,-12.6276 0,-0.8621 -0.67,-2.1235 -1.489,-2.8032 -0.8189,-0.6796 -1.2361,-1.6448 -0.9271,-2.1449 0.7094,-1.1478 -2.4648,-10.8642 -3.5491,-10.8642 -1.0231,0 -4.0348,-9.118 -4.0348,-12.2154 0,-1.2868 -0.6206,-3.2272 -1.3792,-4.3121 -0.7586,-1.0849 -3.9622,-8.4975 -7.1192,-16.4725 -8.1426,-20.5695 -13.8191,-31.3981 -19.7426,-37.6614 -2.7886,-2.9484 -4.7774,-5.6536 -4.4196,-6.0113 0.3578,-0.3579 4.8153,-0.1077 9.9056,0.5558 5.0903,0.6635 13.98,1.7099 19.755,2.3254 13.8757,1.4787 89.1304,1.5139 104,0.049 24.2316,-2.3878 61.7078,-8.6265 78.663,-13.095 3.9396,-1.0383 24.388,-5.8296 24.9599,-5.4761 16.7306,-4.343 18.2059,29.4277 13.167,60.493 -2.7248,15.9688 -6.3549,37.7952 -8.381,40.8997 -12.7425,10.8781 -15.603,19.4748 -19.0706,29.9183 -2.2965,7.1499 -25.0652,14.0713 -25.7289,14.766 -1.3207,1.3822 -11.1424,4.4273 -22.1094,6.8548 -8.032,1.7778 -30.0754,2.6619 -36,1.4438 z m -166,-5.9834 c -16.5781,-4.9162 -28.3895,-10.8632 -39.7549,-20.0168 -20.5764,-16.5719 -25.3656,-30.7264 -26.4124,-78.0615 -0.565,-25.5513 1.0737,-48.3749 3.7005,-51.5399 1.4774,-1.7803 11.1636,-1.9847 15.8947,-0.3354 2.5791,0.8991 3.1224,1.5511 2.7084,3.25 -1.2288,5.042 -3.6432,20.9671 -4.719,31.1253 -2.1391,20.1997 1.0367,49.9361 6.6822,62.5696 5.828,13.0417 24.7802,34.7789 42.1505,48.3444 3.4375,2.6846 6.25,5.2647 6.25,5.7335 0,0.4689 -0.1125,0.8204 -0.25,0.7813 -0.1375,-0.039 -2.95,-0.8719 -6.25,-1.8505 z m 240.6281,-10.9952 c 0.7545,-1.0543 5.6583,-7.5415 10.8973,-14.4159 18.1194,-23.7757 25.5201,-44.9776 26.6803,-76.4346 0.6428,-17.427 -26.5143,-41.9359 -14.1093,-46.6582 5.1204,-1.9492 6.4036,-1.965 6.4036,-2.2221 0,-0.257 1.902,-0.3289 4.2266,-0.1598 5.456,0.3969 6.7281,2.796 6.7912,12.8075 0.026,4.125 0.6392,12.225 1.3627,18 0.9591,7.6565 1.0951,15.1037 0.5022,27.5 -1.8971,39.6592 -5.7513,52.5202 -20.1895,67.3695 -9.2145,9.4769 -27.3517,20.9013 -22.5651,14.2136 z"
               style="fill:#000000" />
          </g>
        </g>
      </g>
    </g>
  </g>
</svg>
