<?xml version="1.0" encoding="UTF-8" standalone="no"?>
<svg
   xmlns:svg="http://www.w3.org/2000/svg"
   xmlns="http://www.w3.org/2000/svg"
   xmlns:sodipodi="http://sodipodi.sourceforge.net/DTD/sodipodi-0.dtd"
   xmlns:inkscape="http://www.inkscape.org/namespaces/inkscape"
   inkscape:version="1.1-dev (48d18c81, 2020-07-08)"
   sodipodi:docname="MotoJoe Template.svg"
   xml:space="preserve"
   style="enable-background:new 0 0 1000 1000;"
   viewBox="0 0 1000 1000"
   y="0px"
   x="0px"
   id="Layer_1"
   version="1.1"><defs
   id="defs878">
	
	
	
	
	
	
	
	
	
	
	
	
	
	
</defs><sodipodi:namedview
   inkscape:current-layer="Layer_1"
   inkscape:window-maximized="1"
   inkscape:window-y="25"
   inkscape:window-x="0"
   inkscape:cy="630.03356"
   inkscape:cx="417.78523"
   inkscape:zoom="0.596"
   showgrid="false"
   id="namedview876"
   inkscape:window-height="1027"
   inkscape:window-width="1920"
   inkscape:pageshadow="2"
   inkscape:pageopacity="0"
   guidetolerance="10"
   gridtolerance="10"
   objecttolerance="10"
   borderopacity="1"
   bordercolor="#666666"
   pagecolor="#ffffff" />
<style
   id="style823"
   type="text/css">
	.st0{fill:#F8FAFF;}
	.st1{display:none;fill:#FFFCF8;}
	.st2{fill:#1F60AC;}
</style>
<rect
   id="rect825"
   height="1000"
   width="1000"
   class="st0" />
<rect
   id="rect827"
   height="1000"
   width="1000"
   class="st1" />
<g
   id="g923"><path
     id="path829"
     d="m 464.94,533.76 c 0.1,1.06 -1.41,1.36 -1.73,0.35 l -8.52,-27.29 -4.04,-12.95 -7.87,-25.19 c -0.79,-2.51 -4.24,-2.78 -5.4,-0.42 l -8.46,17.22 c -1.67,3.4 -6.5,3.47 -8.27,0.12 l -3.92,-7.43 c -1.16,-2.21 -4.38,-2.03 -5.29,0.3 l -13.7,34.94 c -0.39,1.01 -1.9,0.56 -1.69,-0.5 l 13.52,-67.39 c 0.89,-4.44 6.91,-5.2 8.88,-1.12 l 1.9,3.93 c 1.7,3.52 6.73,3.49 8.38,-0.06 l 16.19,-34.71 c 2.04,-4.36 8.53,-3.24 8.98,1.56 l 6.82,73.46 1.34,14.28 z"
     class="st2" /><path
     id="path831"
     d="m 485.78,549.75 c -17.42,20.77 -42.81,28.13 -56.72,16.47 -13.91,-11.67 -11.08,-37.96 6.32,-58.71 0.21,-0.26 0.43,-0.51 0.65,-0.76 3.22,-3.73 9.3,-2.45 10.77,2.26 0.65,2.08 0.18,4.34 -1.24,5.98 -0.17,0.2 -0.35,0.4 -0.52,0.6 -11.75,14.01 -13.66,31.74 -4.26,39.61 9.38,7.87 26.5,2.9 38.25,-11.1 11.75,-14.01 13.66,-31.75 4.28,-39.62 -3.53,-2.95 -8.15,-4.1 -13.18,-3.62 -2.61,0.23 -5.32,0.91 -8.05,2.01 -2.48,0.97 -4.97,2.3 -7.38,3.95 l -4.04,-12.95 c 3.31,-2.17 6.71,-3.93 10.08,-5.27 2.69,-1.07 5.39,-1.86 8.02,-2.38 8.9,-1.76 17.23,-0.3 23.34,4.81 13.91,11.67 11.08,37.96 -6.32,58.72"
     class="st2" /><path
     id="path833"
     d="m 561.18,486.76 c -5.56,-4.66 -15.7,-1.71 -22.65,6.58 -6.95,8.29 -8.08,18.79 -2.53,23.45 5.56,4.66 15.7,1.71 22.65,-6.57 6.96,-8.31 8.09,-18.8 2.53,-23.46 m -5.22,21.19 c -4.69,5.6 -11.53,7.58 -15.28,4.44 -3.75,-3.14 -2.99,-10.23 1.71,-15.82 4.69,-5.59 11.53,-7.58 15.28,-4.44 3.74,3.14 2.98,10.22 -1.71,15.82"
     class="st2" /><path
     id="path835"
     d="m 644.68,477.25 c -15.1,-10.08 -39.88,0.52 -55.35,23.68 -15.46,23.17 -15.76,50.11 -0.66,60.19 15.1,10.09 39.88,-0.51 55.35,-23.67 15.46,-23.16 15.76,-50.11 0.66,-60.2 m -9.94,56.33 c -10.44,15.63 -27.5,22.55 -38.11,15.46 -10.61,-7.09 -10.76,-25.5 -0.32,-41.12 10.43,-15.63 27.5,-22.55 38.1,-15.46 10.61,7.09 10.76,25.5 0.33,41.12"
     class="st2" /><path
     id="path837"
     d="m 482.99,480.94 h 35.17 l -4.97,50.24 c -0.28,2.83 1.95,5.29 4.8,5.29 2.42,0 4.46,-1.79 4.78,-4.19 l 6.76,-51.34 28.18,-1.52 c 1.32,-0.07 2.43,-1.04 2.67,-2.34 0.32,-1.7 -0.92,-3.3 -2.65,-3.4 l -74.37,-4.53 c -2.96,-0.18 -5.6,1.87 -6.15,4.79 -0.7,3.64 2.08,7 5.78,7"
     class="st2" /><path
     id="path839"
     d="m 530.21,405.31 v 0 c 0.71,1.13 1.77,2 3.02,2.46 l 92.98,34.76 c 5.49,2.05 10.42,-4.1 7.21,-9.01 -2.32,-3.56 -5.77,-6.24 -9.79,-7.62 l -86.31,-29.56 c -5.41,-1.85 -10.15,4.12 -7.11,8.97"
     class="st2" /><path
     id="path841"
     d="m 569.86,421.46 c 0,0 19.13,108.36 -34.45,113.4 -1.76,0.17 -3.2,1.47 -3.49,3.21 -0.38,2.33 1.45,5.89 3.81,5.92 14.12,0.17 56.76,-8.15 50.18,-116.54 z"
     class="st2" /><path
     id="path843"
     d="m 687.45,464.6 v 0 c 0.76,-2.06 -8.6,-7.07 -14.54,-7.97 -5.94,-0.9 -10.72,2.51 -11.82,7.95 l -3.3,16.36 c -1.35,6.68 3.25,12.96 11.06,11.72 7.81,-1.24 17.54,-8.7 17.76,-9.23 0.46,-1.08 -0.34,-2.27 -1.52,-2.26 0,0 -7.46,6.1 -12.7,6.21 -5.24,0.11 -7.95,-4.07 -7.06,-8.5 l 0.38,-1.86 16.03,-0.39 c 0.74,-0.02 1.38,-0.52 1.56,-1.23 0.24,-0.9 -0.32,-1.83 -1.23,-2.04 l -14.92,-3.47 0.32,-1.61 c 0.73,-3.64 3.23,-6.4 7.76,-5.88 4.53,0.52 10.32,3.31 10.32,3.31 1.29,0.19 1.55,-0.4 1.9,-1.11"
     class="st2" /><polygon
     id="polygon845"
     points="408.51,477.2 358.79,474.77 408.51,472.35 "
     class="st2" /><polygon
     id="polygon847"
     points="400.38,500.29 312.51,497.87 400.38,495.44 "
     class="st2" /><polygon
     id="polygon849"
     points="421.14,547.14 312.51,544.71 421.14,542.29 "
     class="st2" /><polygon
     id="polygon851"
     points="435.07,567.4 353.1,564.97 435.07,562.55 "
     class="st2" /><polygon
     id="polygon853"
     points="602.5,564.88 523.17,562.46 602.5,560.03 "
     class="st2" /></g>
<text
   id="text908"
   y="631.59729"
   x="345.43927"
   style="font-size:40px;line-height:1.25;font-family:Arial-Rounded;-inkscape-font-specification:'Arial-Rounded, Normal';fill:#1f60ac;fill-opacity:1;stroke:#1f60ac;stroke-opacity:1"
   xml:space="preserve"><tspan
     style="font-style:normal;font-variant:normal;font-weight:normal;font-stretch:normal;font-size:32px;font-family:Arial-Rounded;-inkscape-font-specification:'Arial-Rounded, Normal';font-variant-ligatures:normal;font-variant-caps:normal;font-variant-numeric:normal;font-variant-east-asian:normal"
     y="631.59729"
     x="345.43927"
     id="tspan906"
     sodipodi:role="line">T O U R S  &amp;  R E N T A L S</tspan></text><text
   xml:space="preserve"
   style="font-size:40px;line-height:1.25;font-family:Arial-Rounded;-inkscape-font-specification:'Arial-Rounded, Normal';fill:#1f60ac;fill-opacity:1;stroke:#1f60ac;stroke-opacity:1"
   x="343.24396"
   y="691.59729"
   id="text927"><tspan
     sodipodi:role="line"
     id="tspan925"
     x="343.24396"
     y="691.59729"
     style="font-style:normal;font-variant:normal;font-weight:normal;font-stretch:normal;font-size:32px;font-family:Arial-Rounded;-inkscape-font-specification:'Arial-Rounded, Normal';font-variant-ligatures:normal;font-variant-caps:normal;font-variant-numeric:normal;font-variant-east-asian:normal">D  I  R  T  Y     D  E  M  O  S</tspan></text><text
   xml:space="preserve"
   style="font-size:40px;line-height:1.25;font-family:Arial-Rounded;-inkscape-font-specification:'Arial-Rounded, Normal';fill:#1f60ac;fill-opacity:1;stroke:#1f60ac;stroke-opacity:1"
   x="302.29083"
   y="751.59729"
   id="text931"><tspan
     sodipodi:role="line"
     id="tspan929"
     x="302.29083"
     y="751.59729"
     style="font-style:normal;font-variant:normal;font-weight:normal;font-stretch:normal;font-size:32px;font-family:Arial-Rounded;-inkscape-font-specification:'Arial-Rounded, Normal';font-variant-ligatures:normal;font-variant-caps:normal;font-variant-numeric:normal;font-variant-east-asian:normal">M O T O R R A D   T R A I N I N G </tspan></text><text
   id="text935"
   y="811.59729"
   x="392.88458"
   style="font-size:40px;line-height:1.25;font-family:Arial-Rounded;-inkscape-font-specification:'Arial-Rounded, Normal';fill:#1f60ac;fill-opacity:1;stroke:#1f60ac;stroke-opacity:1"
   xml:space="preserve"><tspan
     style="font-style:normal;font-variant:normal;font-weight:normal;font-stretch:normal;font-size:32px;font-family:Arial-Rounded;-inkscape-font-specification:'Arial-Rounded, Normal';font-variant-ligatures:normal;font-variant-caps:normal;font-variant-numeric:normal;font-variant-east-asian:normal"
     y="811.59729"
     x="392.88458"
     id="tspan933"
     sodipodi:role="line">G O   F L Y   R I D E </tspan></text></svg>
