<?xml version="1.0" encoding="UTF-8" standalone="no"?>
<svg
   xmlns:svg="http://www.w3.org/2000/svg"
   xmlns="http://www.w3.org/2000/svg"
   xmlns:sodipodi="http://sodipodi.sourceforge.net/DTD/sodipodi-0.dtd"
   xmlns:inkscape="http://www.inkscape.org/namespaces/inkscape"
   height="436.35208"
   width="434.70312"
   version="1.1"
   id="Layer_1"
   x="0px"
   y="0px"
   viewBox="0 0 434.70312 436.35208"
   xml:space="preserve"
   sodipodi:docname="MotoJoe.svg"
   inkscape:version="1.1-dev (48d18c81, 2020-07-08)"><defs
   id="defs878">
	
	
	
	
	
	
	
	
	
	
	
	
	
	
</defs><sodipodi:namedview
   fit-margin-bottom="10"
   fit-margin-right="10"
   fit-margin-left="10"
   fit-margin-top="10"
   pagecolor="#ffffff"
   bordercolor="#666666"
   borderopacity="1"
   objecttolerance="10"
   gridtolerance="10"
   guidetolerance="10"
   inkscape:pageopacity="0"
   inkscape:pageshadow="2"
   inkscape:window-width="1251"
   inkscape:window-height="1001"
   id="namedview876"
   showgrid="false"
   inkscape:zoom="1.3567026"
   inkscape:cx="217.8075"
   inkscape:cy="227.38955"
   inkscape:window-x="0"
   inkscape:window-y="25"
   inkscape:window-maximized="0"
   inkscape:current-layer="Layer_1" />
<style
   type="text/css"
   id="style823">
	.st0{fill:#F8FAFF;}
	.st1{display:none;fill:#FFFCF8;}
	.st2{fill:#1F60AC;}
</style>

<rect
   y="-385.99521"
   x="-292.65021"
   class="st1"
   width="1000"
   height="1000"
   id="rect827" />
<g
   transform="translate(-292.65021,-385.99522)"
   id="g923"><path
     class="st2"
     d="m 464.94,533.76 c 0.1,1.06 -1.41,1.36 -1.73,0.35 l -8.52,-27.29 -4.04,-12.95 -7.87,-25.19 c -0.79,-2.51 -4.24,-2.78 -5.4,-0.42 l -8.46,17.22 c -1.67,3.4 -6.5,3.47 -8.27,0.12 l -3.92,-7.43 c -1.16,-2.21 -4.38,-2.03 -5.29,0.3 l -13.7,34.94 c -0.39,1.01 -1.9,0.56 -1.69,-0.5 l 13.52,-67.39 c 0.89,-4.44 6.91,-5.2 8.88,-1.12 l 1.9,3.93 c 1.7,3.52 6.73,3.49 8.38,-0.06 l 16.19,-34.71 c 2.04,-4.36 8.53,-3.24 8.98,1.56 l 6.82,73.46 1.34,14.28 z"
     id="path829" /><path
     class="st2"
     d="m 485.78,549.75 c -17.42,20.77 -42.81,28.13 -56.72,16.47 -13.91,-11.67 -11.08,-37.96 6.32,-58.71 0.21,-0.26 0.43,-0.51 0.65,-0.76 3.22,-3.73 9.3,-2.45 10.77,2.26 0.65,2.08 0.18,4.34 -1.24,5.98 -0.17,0.2 -0.35,0.4 -0.52,0.6 -11.75,14.01 -13.66,31.74 -4.26,39.61 9.38,7.87 26.5,2.9 38.25,-11.1 11.75,-14.01 13.66,-31.75 4.28,-39.62 -3.53,-2.95 -8.15,-4.1 -13.18,-3.62 -2.61,0.23 -5.32,0.91 -8.05,2.01 -2.48,0.97 -4.97,2.3 -7.38,3.95 l -4.04,-12.95 c 3.31,-2.17 6.71,-3.93 10.08,-5.27 2.69,-1.07 5.39,-1.86 8.02,-2.38 8.9,-1.76 17.23,-0.3 23.34,4.81 13.91,11.67 11.08,37.96 -6.32,58.72"
     id="path831" /><path
     class="st2"
     d="m 561.18,486.76 c -5.56,-4.66 -15.7,-1.71 -22.65,6.58 -6.95,8.29 -8.08,18.79 -2.53,23.45 5.56,4.66 15.7,1.71 22.65,-6.57 6.96,-8.31 8.09,-18.8 2.53,-23.46 m -5.22,21.19 c -4.69,5.6 -11.53,7.58 -15.28,4.44 -3.75,-3.14 -2.99,-10.23 1.71,-15.82 4.69,-5.59 11.53,-7.58 15.28,-4.44 3.74,3.14 2.98,10.22 -1.71,15.82"
     id="path833" /><path
     class="st2"
     d="m 644.68,477.25 c -15.1,-10.08 -39.88,0.52 -55.35,23.68 -15.46,23.17 -15.76,50.11 -0.66,60.19 15.1,10.09 39.88,-0.51 55.35,-23.67 15.46,-23.16 15.76,-50.11 0.66,-60.2 m -9.94,56.33 c -10.44,15.63 -27.5,22.55 -38.11,15.46 -10.61,-7.09 -10.76,-25.5 -0.32,-41.12 10.43,-15.63 27.5,-22.55 38.1,-15.46 10.61,7.09 10.76,25.5 0.33,41.12"
     id="path835" /><path
     class="st2"
     d="m 482.99,480.94 h 35.17 l -4.97,50.24 c -0.28,2.83 1.95,5.29 4.8,5.29 2.42,0 4.46,-1.79 4.78,-4.19 l 6.76,-51.34 28.18,-1.52 c 1.32,-0.07 2.43,-1.04 2.67,-2.34 0.32,-1.7 -0.92,-3.3 -2.65,-3.4 l -74.37,-4.53 c -2.96,-0.18 -5.6,1.87 -6.15,4.79 -0.7,3.64 2.08,7 5.78,7"
     id="path837" /><path
     class="st2"
     d="m 530.21,405.31 v 0 c 0.71,1.13 1.77,2 3.02,2.46 l 92.98,34.76 c 5.49,2.05 10.42,-4.1 7.21,-9.01 -2.32,-3.56 -5.77,-6.24 -9.79,-7.62 l -86.31,-29.56 c -5.41,-1.85 -10.15,4.12 -7.11,8.97"
     id="path839" /><path
     class="st2"
     d="m 569.86,421.46 c 0,0 19.13,108.36 -34.45,113.4 -1.76,0.17 -3.2,1.47 -3.49,3.21 -0.38,2.33 1.45,5.89 3.81,5.92 14.12,0.17 56.76,-8.15 50.18,-116.54 z"
     id="path841" /><path
     class="st2"
     d="m 687.45,464.6 v 0 c 0.76,-2.06 -8.6,-7.07 -14.54,-7.97 -5.94,-0.9 -10.72,2.51 -11.82,7.95 l -3.3,16.36 c -1.35,6.68 3.25,12.96 11.06,11.72 7.81,-1.24 17.54,-8.7 17.76,-9.23 0.46,-1.08 -0.34,-2.27 -1.52,-2.26 0,0 -7.46,6.1 -12.7,6.21 -5.24,0.11 -7.95,-4.07 -7.06,-8.5 l 0.38,-1.86 16.03,-0.39 c 0.74,-0.02 1.38,-0.52 1.56,-1.23 0.24,-0.9 -0.32,-1.83 -1.23,-2.04 l -14.92,-3.47 0.32,-1.61 c 0.73,-3.64 3.23,-6.4 7.76,-5.88 4.53,0.52 10.32,3.31 10.32,3.31 1.29,0.19 1.55,-0.4 1.9,-1.11"
     id="path843" /><polygon
     class="st2"
     points="408.51,477.2 358.79,474.77 408.51,472.35 "
     id="polygon845" /><polygon
     class="st2"
     points="400.38,500.29 312.51,497.87 400.38,495.44 "
     id="polygon847" /><polygon
     class="st2"
     points="421.14,547.14 312.51,544.71 421.14,542.29 "
     id="polygon849" /><polygon
     class="st2"
     points="435.07,567.4 353.1,564.97 435.07,562.55 "
     id="polygon851" /><polygon
     class="st2"
     points="602.5,564.88 523.17,562.46 602.5,560.03 "
     id="polygon853" /></g>
<g
   aria-label="T O U R S  &amp;  R E N T A L S"
   id="text908"
   style="font-size:40px;line-height:1.25;font-family:Arial-Rounded;-inkscape-font-specification:'Arial-Rounded, Normal';fill:#1f60ac;fill-opacity:1;stroke:#1f60ac;stroke-opacity:1"><path
     d="m 58.492187,225.41457 h -4.390625 q -0.59375,0 -0.921875,-0.39063 -0.34375,-0.35937 -0.390625,-0.92187 0.04687,-0.5625 0.421875,-0.9375 0.328125,-0.375 0.953125,-0.375 h 11.421875 q 0.671875,0 1.03125,0.375 0.34375,0.42187 0.34375,0.9375 0,0.5625 -0.3125,0.92187 -0.34375,0.39063 -0.9375,0.39063 h -4.40625 v 18.9375 q 0,0.6875 -0.421875,1.0625 -0.421875,0.375 -1.015625,0.375 -0.515625,0 -0.96875,-0.375 -0.40625,-0.39063 -0.40625,-1.0625 z"
     style="font-style:normal;font-variant:normal;font-weight:normal;font-stretch:normal;font-size:32px;font-family:Arial-Rounded;-inkscape-font-specification:'Arial-Rounded, Normal';font-variant-ligatures:normal;font-variant-caps:normal;font-variant-numeric:normal;font-variant-east-asian:normal"
     id="path920" /><path
     d="m 75.085937,234.24269 q 0,-3.09375 1.1875,-5.76562 1.203125,-2.65625 3.484375,-4.28125 2.296875,-1.60938 5.359375,-1.60938 2.296875,0 4.21875,0.9375 1.796875,0.875 3.109375,2.53125 1.265625,1.57813 1.9375,3.70313 0.65625,2.03125 0.703125,4.48437 0,3.17188 -1.171875,5.76563 -0.5625,1.28125 -1.46875,2.35937 -0.890625,1.07813 -2.03125,1.85938 -2.203125,1.5625 -5.296875,1.5625 -2.828125,0 -5.09375,-1.4375 -2.34375,-1.5 -3.625,-4.09375 -1.3125,-2.70313 -1.3125,-6.01563 z m 3.015625,-0.0625 q 0,2.09375 0.640625,4.1875 0.640625,2.07813 2.203125,3.54688 1.546875,1.45312 4.171875,1.45312 1.375,0 2.71875,-0.57812 1.234375,-0.57813 2.203125,-1.73438 1,-1.20312 1.5,-2.875 0.53125,-1.70312 0.578125,-4 0,-2.1875 -0.546875,-4 -0.484375,-1.64062 -1.46875,-2.875 -0.953125,-1.125 -2.25,-1.70312 -1.28125,-0.57813 -2.734375,-0.57813 -1.953125,0 -3.5625,1.0625 -1.625,1.09375 -2.53125,3.125 -0.921875,2.07813 -0.921875,4.96875 z"
     style="font-style:normal;font-variant:normal;font-weight:normal;font-stretch:normal;font-size:32px;font-family:Arial-Rounded;-inkscape-font-specification:'Arial-Rounded, Normal';font-variant-ligatures:normal;font-variant-caps:normal;font-variant-numeric:normal;font-variant-east-asian:normal"
     id="path922" /><path
     d="m 105.55469,224.03957 q 0,-0.70313 0.40625,-1.0625 0.42187,-0.39063 0.96875,-0.39063 0.54687,0 0.98437,0.39063 0.42188,0.35937 0.42188,1.0625 v 13.6875 q 0,1.82812 0.79687,3.07812 0.82813,1.25 2.21875,1.92188 1.45313,0.64062 3.1875,0.64062 1.8125,-0.0469 3.10938,-0.78125 1.32812,-0.70312 2.04687,-1.96875 0.70313,-1.21875 0.70313,-2.89062 v -13.6875 q 0,-0.6875 0.39062,-1.0625 0.39063,-0.39063 0.92188,-0.39063 0.5625,0 1.03125,0.39063 0.40625,0.35937 0.40625,1.0625 v 12.76562 q 0,2.76563 -0.95313,4.76563 -0.92187,2.04687 -2.89062,3.14062 -1.90625,1.07813 -4.82813,1.07813 -2.23437,0 -3.95312,-0.625 -1.70313,-0.64063 -2.79688,-1.82813 -1.125,-1.25 -1.625,-2.82812 -0.54687,-1.64063 -0.54687,-3.64063 z"
     style="font-style:normal;font-variant:normal;font-weight:normal;font-stretch:normal;font-size:32px;font-family:Arial-Rounded;-inkscape-font-specification:'Arial-Rounded, Normal';font-variant-ligatures:normal;font-variant-caps:normal;font-variant-numeric:normal;font-variant-east-asian:normal"
     id="path924" /><path
     d="m 137.33594,225.21144 v 8.14063 h 3.96875 q 1.57812,0 2.5,-0.54688 0.85937,-0.51562 1.21875,-1.4375 0.32812,-0.875 0.375,-2.15625 0,-1.20312 -0.57813,-2.10937 -0.5,-0.89063 -1.5,-1.40625 -1.04687,-0.48438 -2.14062,-0.48438 z m -2.78125,-0.92187 q 0,-0.79688 0.4375,-1.14063 0.45312,-0.35937 0.9375,-0.35937 h 5.46875 q 1.59375,0 3.17187,0.76562 1.64063,0.75 2.625,2.29688 1.01563,1.5625 1.01563,3.75 -0.14063,1.70312 -0.67188,2.78125 -0.5,1.125 -1.5,1.82812 -0.85937,0.6875 -2.23437,0.98438 -1.28125,0.29687 -3.01563,0.29687 l 7.29688,8 q 0.57812,0.51563 0.57812,1.25 0,0.40625 -0.39062,0.70313 -0.375,0.28125 -0.92188,0.28125 -0.82812,0 -1.3125,-0.57813 l -8.70312,-9.5625 v 8.82813 q 0,0.70312 -0.4375,1.04687 -0.42188,0.32813 -0.96875,0.32813 -0.5625,0 -0.96875,-0.375 -0.40625,-0.34375 -0.40625,-1.0625 z"
     style="font-style:normal;font-variant:normal;font-weight:normal;font-stretch:normal;font-size:32px;font-family:Arial-Rounded;-inkscape-font-specification:'Arial-Rounded, Normal';font-variant-ligatures:normal;font-variant-caps:normal;font-variant-numeric:normal;font-variant-east-asian:normal"
     id="path926" /><path
     d="m 169.22656,223.77394 q 0.9375,0.65625 0.9375,1.51563 0,0.48437 -0.39062,0.82812 -0.3125,0.35938 -0.92188,0.40625 -0.5,-0.10937 -1.57812,-0.60937 -0.9375,-0.45313 -1.53125,-0.67188 -0.48438,-0.21875 -1.28125,-0.21875 -1.53125,0 -2.5,0.89063 -0.96875,0.89062 -1.17188,2.4375 0.0937,1.98437 2.6875,3.07812 0.5,0.21875 1.85938,0.67188 0.9375,0.32812 2.29687,0.85937 1.01563,0.4375 1.85938,1.03125 0.79687,0.5625 1.375,1.4375 0.85937,1.46875 0.85937,3.23438 0,1.79687 -0.85937,3.42187 -0.9375,1.70313 -2.625,2.6875 -1.79688,1.01563 -4.1875,1.01563 -1.78125,0 -3.35938,-0.46875 -1.54687,-0.4375 -2.40625,-1.09375 -0.625,-0.42188 -0.67187,-1.25 0,-0.54688 0.34375,-0.98438 0.34375,-0.39062 0.90625,-0.39062 0.25,0 0.79687,0.25 1.07813,0.73437 2.26563,1.125 1.20312,0.39062 2.46875,0.39062 1.07812,0 2.14062,-0.64062 0.95313,-0.625 1.54688,-1.64063 0.57812,-1.03125 0.57812,-2.17187 0,-1.17188 -0.67187,-2.01563 -0.70313,-0.84375 -1.67188,-1.34375 -0.89062,-0.46875 -2.625,-1.0625 -0.79687,-0.25 -1.98437,-0.70312 -1.28125,-0.625 -2.04688,-1.21875 -0.79687,-0.59375 -1.3125,-1.59375 -0.46875,-0.95313 -0.51562,-2.35938 0,-1.73437 1,-3.10937 1.0625,-1.48438 2.5625,-2.14063 1.59375,-0.78125 3.26562,-0.78125 2.8125,0 4.5625,1.1875 z"
     style="font-style:normal;font-variant:normal;font-weight:normal;font-stretch:normal;font-size:32px;font-family:Arial-Rounded;-inkscape-font-specification:'Arial-Rounded, Normal';font-variant-ligatures:normal;font-variant-caps:normal;font-variant-numeric:normal;font-variant-east-asian:normal"
     id="path928" /><path
     d="m 195.80469,230.46144 q 2.96875,-1.51562 2.96875,-3.42187 0,-0.95313 -0.76563,-1.5625 -0.67187,-0.60938 -1.85937,-0.60938 -1.17188,0 -1.78125,0.67188 -0.65625,0.65625 -0.70313,1.625 0.0625,0.1875 0.0625,0.42187 0.0469,0.34375 0.28125,0.67188 0.23438,0.40625 0.48438,0.70312 0.10937,0.125 0.26562,0.32813 0.17188,0.1875 0.23438,0.26562 0.0781,0.0781 0.29687,0.32813 0.51563,0.51562 0.51563,0.57812 z m 4.98437,9.76563 -5.8125,-6.6875 q -3.79687,1.96875 -3.9375,5.3125 0.0937,1.23437 0.67188,2.23437 0.5,0.98438 1.5,1.54688 0.98437,0.54687 2.26562,0.59375 1.45313,-0.0469 2.85938,-0.79688 1.40625,-0.78125 2.45312,-2.20312 z m -7.39062,-8.51563 q -0.98438,-1.03125 -1.53125,-1.85937 -0.5625,-0.85938 -0.76563,-1.46875 -0.1875,-0.71875 -0.1875,-1.59375 0,-1.34375 0.73438,-2.3125 0.6875,-0.89063 1.95312,-1.40625 1.23438,-0.48438 2.54688,-0.48438 2.1875,0 3.75,1.125 1.5625,1.07813 1.5625,3.07813 -0.0469,1.5 -0.92188,2.84375 -0.95312,1.39062 -3.20312,2.59375 l 5.09375,6.04687 q 0.5,-0.625 1.15625,-1.65625 0.29687,-0.5 0.45312,-0.73437 0.15625,-0.25 0.25,-0.39063 0.73438,-1.375 1.5,-1.375 1.1875,0 1.1875,0.92188 0,0.79687 -0.45312,1.73437 -0.40625,0.78125 -1.125,1.65625 -0.54688,0.6875 -1.375,1.67188 l 2.95312,3.54687 q 0.375,0.48438 0.375,1.09375 0,0.39063 -0.34375,0.70313 -0.39062,0.28125 -0.90625,0.28125 -0.59375,0 -0.92187,-0.375 l -2.75,-3.23438 q -1.10938,1.32813 -2.17188,2.04688 -1.1875,0.82812 -2.4375,1.21875 -1.23437,0.40625 -2.59375,0.40625 -1.92187,0 -3.48437,-0.85938 -1.57813,-0.8125 -2.5,-2.375 -0.90625,-1.51562 -0.95313,-3.45312 0.0312,-0.15625 0.0312,-0.3125 0.0156,-0.17188 0.0312,-0.35938 0.0312,-0.28125 0.0312,-0.39062 0.0156,-0.125 0.0312,-0.25 0.28125,-1.67188 1.3125,-3.09375 1,-1.39063 3.67188,-2.98438 z"
     style="font-style:normal;font-variant:normal;font-weight:normal;font-stretch:normal;font-size:32px;font-family:Arial-Rounded;-inkscape-font-specification:'Arial-Rounded, Normal';font-variant-ligatures:normal;font-variant-caps:normal;font-variant-numeric:normal;font-variant-east-asian:normal"
     id="path930" /><path
     d="m 228.58594,225.21144 v 8.14063 h 3.96875 q 1.57812,0 2.5,-0.54688 0.85937,-0.51562 1.21875,-1.4375 0.32812,-0.875 0.375,-2.15625 0,-1.20312 -0.57813,-2.10937 -0.5,-0.89063 -1.5,-1.40625 -1.04687,-0.48438 -2.14062,-0.48438 z m -2.78125,-0.92187 q 0,-0.79688 0.4375,-1.14063 0.45312,-0.35937 0.9375,-0.35937 h 5.46875 q 1.59375,0 3.17187,0.76562 1.64063,0.75 2.625,2.29688 1.01563,1.5625 1.01563,3.75 -0.14063,1.70312 -0.67188,2.78125 -0.5,1.125 -1.5,1.82812 -0.85937,0.6875 -2.23437,0.98438 -1.28125,0.29687 -3.01563,0.29687 l 7.29688,8 q 0.57812,0.51563 0.57812,1.25 0,0.40625 -0.39062,0.70313 -0.375,0.28125 -0.92188,0.28125 -0.82812,0 -1.3125,-0.57813 l -8.70312,-9.5625 v 8.82813 q 0,0.70312 -0.4375,1.04687 -0.42188,0.32813 -0.96875,0.32813 -0.5625,0 -0.96875,-0.375 -0.40625,-0.34375 -0.40625,-1.0625 z"
     style="font-style:normal;font-variant:normal;font-weight:normal;font-stretch:normal;font-size:32px;font-family:Arial-Rounded;-inkscape-font-specification:'Arial-Rounded, Normal';font-variant-ligatures:normal;font-variant-caps:normal;font-variant-numeric:normal;font-variant-east-asian:normal"
     id="path932" /><path
     d="m 250.11719,224.35207 q 0,-0.6875 0.34375,-1.15625 0.34375,-0.40625 0.84375,-0.40625 h 8.60937 q 0.5,0 0.85938,0.375 0.3125,0.375 0.3125,0.9375 0,0.5625 -0.3125,0.92187 -0.34375,0.39063 -0.9375,0.39063 h -6.9375 v 7.51562 h 6.34375 q 0.59375,0 0.92187,0.39063 0.3125,0.3125 0.3125,0.92187 0,0.53125 -0.34375,0.92188 -0.32812,0.39062 -0.96875,0.39062 h -6.26562 v 7.42188 h 7.01562 q 0.57813,0 0.85938,0.39062 0.3125,0.35938 0.3125,0.98438 0,0.5 -0.34375,0.89062 -0.35938,0.35938 -1.03125,0.35938 h -8.21875 q -0.90625,0 -1.125,-0.51563 -0.25,-0.54687 -0.25,-0.98437 z"
     style="font-style:normal;font-variant:normal;font-weight:normal;font-stretch:normal;font-size:32px;font-family:Arial-Rounded;-inkscape-font-specification:'Arial-Rounded, Normal';font-variant-ligatures:normal;font-variant-caps:normal;font-variant-numeric:normal;font-variant-east-asian:normal"
     id="path934" /><path
     d="m 271.99219,224.03957 q 0,-0.73438 0.3125,-1.09375 0.34375,-0.42188 0.875,-0.42188 0.95312,0 1.59375,0.96875 l 11.96875,17.1875 h 0.0312 v -16.57812 q 0,-0.71875 0.42187,-1.125 0.4375,-0.39063 0.95313,-0.39063 0.5625,0 1.03125,0.39063 0.40625,0.40625 0.40625,1.125 v 20.3125 q 0,0.64062 -0.34375,1.0625 -0.34375,0.375 -0.90625,0.375 -0.85938,0 -1.5625,-0.89063 l -11.9375,-17.1875 -0.0625,-0.0625 v 16.70313 q 0,0.70312 -0.4375,1.04687 -0.42188,0.32813 -0.96875,0.32813 -0.5625,0 -0.96875,-0.375 -0.40625,-0.34375 -0.40625,-1.0625 z"
     style="font-style:normal;font-variant:normal;font-weight:normal;font-stretch:normal;font-size:32px;font-family:Arial-Rounded;-inkscape-font-specification:'Arial-Rounded, Normal';font-variant-ligatures:normal;font-variant-caps:normal;font-variant-numeric:normal;font-variant-east-asian:normal"
     id="path936" /><path
     d="m 304.80469,225.41457 h -4.39063 q -0.59375,0 -0.92187,-0.39063 -0.34375,-0.35937 -0.39063,-0.92187 0.0469,-0.5625 0.42188,-0.9375 0.32812,-0.375 0.95312,-0.375 h 11.42188 q 0.67187,0 1.03125,0.375 0.34375,0.42187 0.34375,0.9375 0,0.5625 -0.3125,0.92187 -0.34375,0.39063 -0.9375,0.39063 h -4.40625 v 18.9375 q 0,0.6875 -0.42188,1.0625 -0.42187,0.375 -1.01562,0.375 -0.51563,0 -0.96875,-0.375 -0.40625,-0.39063 -0.40625,-1.0625 z"
     style="font-style:normal;font-variant:normal;font-weight:normal;font-stretch:normal;font-size:32px;font-family:Arial-Rounded;-inkscape-font-specification:'Arial-Rounded, Normal';font-variant-ligatures:normal;font-variant-caps:normal;font-variant-numeric:normal;font-variant-east-asian:normal"
     id="path938" /><path
     d="m 325.78906,238.24269 h 8.85938 l -4.40625,-12.39062 h -0.0625 z m -0.85937,2.4375 -1.5,4.125 q -0.29688,0.98438 -1.45313,0.98438 -0.5625,0 -0.89062,-0.28125 -0.375,-0.32813 -0.42188,-0.82813 0.0469,-0.21875 0.10938,-0.42187 0.0156,-0.10938 0.0937,-0.35938 l 7.35937,-19.67187 q 0.29688,-0.85938 0.79688,-1.25 0.54687,-0.45313 1.15625,-0.45313 0.65625,0 1.17187,0.42188 0.48438,0.375 0.8125,1.21875 l 7.45313,19.73437 q 0.125,0.48438 0.125,0.84375 0,0.54688 -0.375,0.82813 -0.35938,0.28125 -0.9375,0.28125 -0.45313,0 -0.85938,-0.25 -0.4375,-0.28125 -0.57812,-0.79688 l -1.5,-4.125 z"
     style="font-style:normal;font-variant:normal;font-weight:normal;font-stretch:normal;font-size:32px;font-family:Arial-Rounded;-inkscape-font-specification:'Arial-Rounded, Normal';font-variant-ligatures:normal;font-variant-caps:normal;font-variant-numeric:normal;font-variant-east-asian:normal"
     id="path940" /><path
     d="m 349.55469,224.10207 q 0,-0.76563 0.40625,-1.125 0.42187,-0.39063 1.03125,-0.39063 1.34375,0 1.34375,1.64063 v 18.75 h 5.76562 q 0.65625,0 1.14063,0.32812 0.48437,0.32813 0.48437,0.92188 0,0.85937 -0.45312,1.125 -0.45313,0.25 -0.73438,0.25 h -7.67187 q -0.51563,0 -0.90625,-0.39063 -0.40625,-0.3125 -0.40625,-1.3125 z"
     style="font-style:normal;font-variant:normal;font-weight:normal;font-stretch:normal;font-size:32px;font-family:Arial-Rounded;-inkscape-font-specification:'Arial-Rounded, Normal';font-variant-ligatures:normal;font-variant-caps:normal;font-variant-numeric:normal;font-variant-east-asian:normal"
     id="path942" /><path
     d="m 379.41406,223.77394 q 0.9375,0.65625 0.9375,1.51563 0,0.48437 -0.39062,0.82812 -0.3125,0.35938 -0.92188,0.40625 -0.5,-0.10937 -1.57812,-0.60937 -0.9375,-0.45313 -1.53125,-0.67188 -0.48438,-0.21875 -1.28125,-0.21875 -1.53125,0 -2.5,0.89063 -0.96875,0.89062 -1.17188,2.4375 0.0937,1.98437 2.6875,3.07812 0.5,0.21875 1.85938,0.67188 0.9375,0.32812 2.29687,0.85937 1.01563,0.4375 1.85938,1.03125 0.79687,0.5625 1.375,1.4375 0.85937,1.46875 0.85937,3.23438 0,1.79687 -0.85937,3.42187 -0.9375,1.70313 -2.625,2.6875 -1.79688,1.01563 -4.1875,1.01563 -1.78125,0 -3.35938,-0.46875 -1.54687,-0.4375 -2.40625,-1.09375 -0.625,-0.42188 -0.67187,-1.25 0,-0.54688 0.34375,-0.98438 0.34375,-0.39062 0.90625,-0.39062 0.25,0 0.79687,0.25 1.07813,0.73437 2.26563,1.125 1.20312,0.39062 2.46875,0.39062 1.07812,0 2.14062,-0.64062 0.95313,-0.625 1.54688,-1.64063 0.57812,-1.03125 0.57812,-2.17187 0,-1.17188 -0.67187,-2.01563 -0.70313,-0.84375 -1.67188,-1.34375 -0.89062,-0.46875 -2.625,-1.0625 -0.79687,-0.25 -1.98437,-0.70312 -1.28125,-0.625 -2.04688,-1.21875 -0.79687,-0.59375 -1.3125,-1.59375 -0.46875,-0.95313 -0.51562,-2.35938 0,-1.73437 1,-3.10937 1.0625,-1.48438 2.5625,-2.14063 1.59375,-0.78125 3.26562,-0.78125 2.8125,0 4.5625,1.1875 z"
     style="font-style:normal;font-variant:normal;font-weight:normal;font-stretch:normal;font-size:32px;font-family:Arial-Rounded;-inkscape-font-specification:'Arial-Rounded, Normal';font-variant-ligatures:normal;font-variant-caps:normal;font-variant-numeric:normal;font-variant-east-asian:normal"
     id="path944" /></g><g
   transform="translate(0,60)"
   aria-label="D  I  R  T  Y     D  E  M  O  S"
   id="text927"
   style="font-size:40px;line-height:1.25;font-family:Arial-Rounded;-inkscape-font-specification:'Arial-Rounded, Normal';fill:#1f60ac;fill-opacity:1;stroke:#1f60ac;stroke-opacity:1"><path
     d="m 55.390625,285.21146 v 17.95312 h 4.390625 q 0.9375,0 2.140625,-0.34375 1.234375,-0.42187 2.265625,-1.375 1.15625,-1.03125 1.859375,-2.85937 0.734375,-1.875 0.734375,-4.67188 0,-2.09375 -0.5,-3.64062 -0.53125,-1.625 -1.515625,-2.75 -0.984375,-1.14063 -2.328125,-1.70313 -1.40625,-0.60937 -3.046875,-0.60937 z m -2.78125,-0.92188 q 0,-1.5 1.46875,-1.5 h 5.765625 q 3.0625,0 5.34375,1.5 2.21875,1.51563 3.421875,4.125 1.1875,2.57813 1.1875,5.70313 -0.04687,3.32812 -1.15625,5.95312 -1.078125,2.57813 -3.328125,4.0625 -2.140625,1.46875 -5.21875,1.46875 h -6.015625 q -0.78125,0 -1.109375,-0.45312 -0.359375,-0.4375 -0.359375,-0.79688 z"
     style="font-style:normal;font-variant:normal;font-weight:normal;font-stretch:normal;font-size:32px;font-family:Arial-Rounded;-inkscape-font-specification:'Arial-Rounded, Normal';font-variant-ligatures:normal;font-variant-caps:normal;font-variant-numeric:normal;font-variant-east-asian:normal"
     id="path947" /><path
     d="m 88.046875,284.10208 q 0,-1.51562 1.4375,-1.51562 0.5625,0 0.953125,0.39062 0.390625,0.32813 0.390625,1.125 v 20.125 q 0,0.89063 -0.4375,1.23438 -0.421875,0.32812 -0.90625,0.32812 -1.4375,0 -1.4375,-1.5 z"
     style="font-style:normal;font-variant:normal;font-weight:normal;font-stretch:normal;font-size:32px;font-family:Arial-Rounded;-inkscape-font-specification:'Arial-Rounded, Normal';font-variant-ligatures:normal;font-variant-caps:normal;font-variant-numeric:normal;font-variant-east-asian:normal"
     id="path949" /><path
     d="m 112.70313,285.21146 v 8.14062 h 3.96875 q 1.57812,0 2.5,-0.54687 0.85937,-0.51563 1.21875,-1.4375 0.32812,-0.875 0.375,-2.15625 0,-1.20313 -0.57813,-2.10938 -0.5,-0.89062 -1.5,-1.40625 -1.04687,-0.48437 -2.14062,-0.48437 z m -2.78125,-0.92188 q 0,-0.79687 0.4375,-1.14062 0.45312,-0.35938 0.9375,-0.35938 h 5.46875 q 1.59375,0 3.17187,0.76563 1.64063,0.75 2.625,2.29687 1.01563,1.5625 1.01563,3.75 -0.14063,1.70313 -0.67188,2.78125 -0.5,1.125 -1.5,1.82813 -0.85937,0.6875 -2.23437,0.98437 -1.28125,0.29688 -3.01563,0.29688 l 7.29688,8 q 0.57812,0.51562 0.57812,1.25 0,0.40625 -0.39062,0.70312 -0.375,0.28125 -0.92188,0.28125 -0.82812,0 -1.3125,-0.57812 l -8.70312,-9.5625 v 8.82812 q 0,0.70313 -0.4375,1.04688 -0.42188,0.32812 -0.96875,0.32812 -0.5625,0 -0.96875,-0.375 -0.40625,-0.34375 -0.40625,-1.0625 z"
     style="font-style:normal;font-variant:normal;font-weight:normal;font-stretch:normal;font-size:32px;font-family:Arial-Rounded;-inkscape-font-specification:'Arial-Rounded, Normal';font-variant-ligatures:normal;font-variant-caps:normal;font-variant-numeric:normal;font-variant-east-asian:normal"
     id="path951" /><path
     d="m 145.73437,285.41458 h -4.39062 q -0.59375,0 -0.92188,-0.39062 -0.34375,-0.35938 -0.39062,-0.92188 0.0469,-0.5625 0.42187,-0.9375 0.32813,-0.375 0.95313,-0.375 h 11.42187 q 0.67188,0 1.03125,0.375 0.34375,0.42188 0.34375,0.9375 0,0.5625 -0.3125,0.92188 -0.34375,0.39062 -0.9375,0.39062 h -4.40625 v 18.9375 q 0,0.6875 -0.42187,1.0625 -0.42188,0.375 -1.01563,0.375 -0.51562,0 -0.96875,-0.375 -0.40625,-0.39062 -0.40625,-1.0625 z"
     style="font-style:normal;font-variant:normal;font-weight:normal;font-stretch:normal;font-size:32px;font-family:Arial-Rounded;-inkscape-font-specification:'Arial-Rounded, Normal';font-variant-ligatures:normal;font-variant-caps:normal;font-variant-numeric:normal;font-variant-east-asian:normal"
     id="path953" /><path
     d="m 175.65625,294.85208 -6.23438,-10.10937 q -0.34375,-0.60938 -0.39062,-1.03125 0,-0.46875 0.375,-0.79688 0.39062,-0.32812 0.875,-0.32812 0.875,0 1.375,0.78125 l 5.375,8.73437 5.375,-8.67187 q 0.5,-0.84375 1.3125,-0.84375 0.51562,0 0.875,0.32812 0.375,0.32813 0.375,0.85938 0,0.4375 -0.25,0.90625 l -6.25,10.17187 v 9.4375 q 0,0.70313 -0.45313,1.15625 -0.40625,0.40625 -0.98437,0.40625 -0.51563,0 -0.95313,-0.4375 -0.42187,-0.42187 -0.42187,-1.125 z"
     style="font-style:normal;font-variant:normal;font-weight:normal;font-stretch:normal;font-size:32px;font-family:Arial-Rounded;-inkscape-font-specification:'Arial-Rounded, Normal';font-variant-ligatures:normal;font-variant-caps:normal;font-variant-numeric:normal;font-variant-east-asian:normal"
     id="path955" /><path
     d="m 227.70312,285.21146 v 17.95312 h 4.39063 q 0.9375,0 2.14062,-0.34375 1.23438,-0.42187 2.26563,-1.375 1.15625,-1.03125 1.85937,-2.85937 0.73438,-1.875 0.73438,-4.67188 0,-2.09375 -0.5,-3.64062 -0.53125,-1.625 -1.51563,-2.75 -0.98437,-1.14063 -2.32812,-1.70313 -1.40625,-0.60937 -3.04688,-0.60937 z m -2.78125,-0.92188 q 0,-1.5 1.46875,-1.5 h 5.76563 q 3.0625,0 5.34375,1.5 2.21875,1.51563 3.42187,4.125 1.1875,2.57813 1.1875,5.70313 -0.0469,3.32812 -1.15625,5.95312 -1.07812,2.57813 -3.32812,4.0625 -2.14063,1.46875 -5.21875,1.46875 h -6.01563 q -0.78125,0 -1.10937,-0.45312 -0.35938,-0.4375 -0.35938,-0.79688 z"
     style="font-style:normal;font-variant:normal;font-weight:normal;font-stretch:normal;font-size:32px;font-family:Arial-Rounded;-inkscape-font-specification:'Arial-Rounded, Normal';font-variant-ligatures:normal;font-variant-caps:normal;font-variant-numeric:normal;font-variant-east-asian:normal"
     id="path957" /><path
     d="m 260.35937,284.35208 q 0,-0.6875 0.34375,-1.15625 0.34375,-0.40625 0.84375,-0.40625 h 8.60938 q 0.5,0 0.85937,0.375 0.3125,0.375 0.3125,0.9375 0,0.5625 -0.3125,0.92188 -0.34375,0.39062 -0.9375,0.39062 h -6.9375 v 7.51563 h 6.34375 q 0.59375,0 0.92188,0.39062 0.3125,0.3125 0.3125,0.92188 0,0.53125 -0.34375,0.92187 -0.32813,0.39063 -0.96875,0.39063 h -6.26563 v 7.42187 h 7.01563 q 0.57812,0 0.85937,0.39063 0.3125,0.35937 0.3125,0.98437 0,0.5 -0.34375,0.89063 -0.35937,0.35937 -1.03125,0.35937 h -8.21875 q -0.90625,0 -1.125,-0.51562 -0.25,-0.54688 -0.25,-0.98438 z"
     style="font-style:normal;font-variant:normal;font-weight:normal;font-stretch:normal;font-size:32px;font-family:Arial-Rounded;-inkscape-font-specification:'Arial-Rounded, Normal';font-variant-ligatures:normal;font-variant-caps:normal;font-variant-numeric:normal;font-variant-east-asian:normal"
     id="path959" /><path
     d="m 292.28125,284.53958 q 0.17187,-1 0.73437,-1.5 0.625,-0.51562 1.39063,-0.51562 0.76562,0 1.3125,0.42187 0.54687,0.35938 0.76562,1.15625 l 4.85938,16.70313 h 0.0625 l 4.85937,-16.82813 q 0.21875,-0.70312 0.78125,-1.0625 0.53125,-0.39062 1.23438,-0.39062 0.79687,0 1.45312,0.48437 0.59375,0.53125 0.73438,1.40625 l 3.32812,19.5625 q 0,0.95313 -0.42187,1.40625 -0.375,0.46875 -0.95313,0.46875 -0.5625,0 -0.95312,-0.29687 -0.375,-0.3125 -0.5,-0.9375 l -2.625,-18.4375 -5.5625,18.5625 q -0.28125,1.10937 -1.375,1.10937 -0.48438,0 -0.89063,-0.3125 -0.39062,-0.29687 -0.54687,-0.79687 l -5.5,-18.5625 -2.6875,18.5625 q -0.0937,0.64062 -0.54688,0.98437 -0.4375,0.39063 -1.03125,0.39063 -0.5,0 -0.85937,-0.42188 -0.40625,-0.46875 -0.45313,-1.21875 0.0625,-0.3125 0.0625,-0.64062 z"
     style="font-style:normal;font-variant:normal;font-weight:normal;font-stretch:normal;font-size:32px;font-family:Arial-Rounded;-inkscape-font-specification:'Arial-Rounded, Normal';font-variant-ligatures:normal;font-variant-caps:normal;font-variant-numeric:normal;font-variant-east-asian:normal"
     id="path961" /><path
     d="m 331.07812,294.24271 q 0,-3.09375 1.1875,-5.76563 1.20313,-2.65625 3.48438,-4.28125 2.29687,-1.60937 5.35937,-1.60937 2.29688,0 4.21875,0.9375 1.79688,0.875 3.10938,2.53125 1.26562,1.57812 1.9375,3.70312 0.65625,2.03125 0.70312,4.48438 0,3.17187 -1.17187,5.76562 -0.5625,1.28125 -1.46875,2.35938 -0.89063,1.07812 -2.03125,1.85937 -2.20313,1.5625 -5.29688,1.5625 -2.82812,0 -5.09375,-1.4375 -2.34375,-1.5 -3.625,-4.09375 -1.3125,-2.70312 -1.3125,-6.01562 z m 3.01563,-0.0625 q 0,2.09375 0.64062,4.1875 0.64063,2.07812 2.20313,3.54687 1.54687,1.45313 4.17187,1.45313 1.375,0 2.71875,-0.57813 1.23438,-0.57812 2.20313,-1.73437 1,-1.20313 1.5,-2.875 0.53125,-1.70313 0.57812,-4 0,-2.1875 -0.54687,-4 -0.48438,-1.64063 -1.46875,-2.875 -0.95313,-1.125 -2.25,-1.70313 -1.28125,-0.57812 -2.73438,-0.57812 -1.95312,0 -3.5625,1.0625 -1.625,1.09375 -2.53125,3.125 -0.92187,2.07812 -0.92187,4.96875 z"
     style="font-style:normal;font-variant:normal;font-weight:normal;font-stretch:normal;font-size:32px;font-family:Arial-Rounded;-inkscape-font-specification:'Arial-Rounded, Normal';font-variant-ligatures:normal;font-variant-caps:normal;font-variant-numeric:normal;font-variant-east-asian:normal"
     id="path963" /><path
     d="m 379.59375,283.77396 q 0.9375,0.65625 0.9375,1.51562 0,0.48438 -0.39063,0.82813 -0.3125,0.35937 -0.92187,0.40625 -0.5,-0.10938 -1.57813,-0.60938 -0.9375,-0.45312 -1.53125,-0.67187 -0.48437,-0.21875 -1.28125,-0.21875 -1.53125,0 -2.5,0.89062 -0.96875,0.89063 -1.17187,2.4375 0.0937,1.98438 2.6875,3.07813 0.5,0.21875 1.85937,0.67187 0.9375,0.32813 2.29688,0.85938 1.01562,0.4375 1.85937,1.03125 0.79688,0.5625 1.375,1.4375 0.85938,1.46875 0.85938,3.23437 0,1.79688 -0.85938,3.42188 -0.9375,1.70312 -2.625,2.6875 -1.79687,1.01562 -4.1875,1.01562 -1.78125,0 -3.35937,-0.46875 -1.54688,-0.4375 -2.40625,-1.09375 -0.625,-0.42187 -0.67188,-1.25 0,-0.54687 0.34375,-0.98437 0.34375,-0.39063 0.90625,-0.39063 0.25,0 0.79688,0.25 1.07812,0.73438 2.26562,1.125 1.20313,0.39063 2.46875,0.39063 1.07813,0 2.14063,-0.64063 0.95312,-0.625 1.54687,-1.64062 0.57813,-1.03125 0.57813,-2.17188 0,-1.17187 -0.67188,-2.01562 -0.70312,-0.84375 -1.67187,-1.34375 -0.89063,-0.46875 -2.625,-1.0625 -0.79688,-0.25 -1.98438,-0.70313 -1.28125,-0.625 -2.04687,-1.21875 -0.79688,-0.59375 -1.3125,-1.59375 -0.46875,-0.95312 -0.51563,-2.35937 0,-1.73438 1,-3.10938 1.0625,-1.48437 2.5625,-2.14062 1.59375,-0.78125 3.26563,-0.78125 2.8125,0 4.5625,1.1875 z"
     style="font-style:normal;font-variant:normal;font-weight:normal;font-stretch:normal;font-size:32px;font-family:Arial-Rounded;-inkscape-font-specification:'Arial-Rounded, Normal';font-variant-ligatures:normal;font-variant-caps:normal;font-variant-numeric:normal;font-variant-east-asian:normal"
     id="path965" /></g><g
   transform="translate(0,-60)"
   aria-label="M O T O R R A D   T R A I N I N G "
   id="text931"
   style="font-size:40px;line-height:1.25;font-family:Arial-Rounded;-inkscape-font-specification:'Arial-Rounded, Normal';fill:#1f60ac;fill-opacity:1;stroke:#1f60ac;stroke-opacity:1"><path
     d="m 13.890625,344.53958 q 0.171875,-1 0.734375,-1.5 0.625,-0.51562 1.390625,-0.51562 0.765625,0 1.3125,0.42187 0.546875,0.35938 0.765625,1.15625 l 4.859375,16.70313 h 0.0625 L 27.875,343.97708 q 0.21875,-0.70312 0.78125,-1.0625 0.53125,-0.39062 1.234375,-0.39062 0.796875,0 1.453125,0.48437 0.59375,0.53125 0.734375,1.40625 l 3.328125,19.5625 q 0,0.95313 -0.421875,1.40625 -0.375,0.46875 -0.953125,0.46875 -0.5625,0 -0.953125,-0.29687 -0.375,-0.3125 -0.5,-0.9375 l -2.625,-18.4375 -5.5625,18.5625 q -0.28125,1.10937 -1.375,1.10937 -0.484375,0 -0.890625,-0.3125 -0.390625,-0.29687 -0.546875,-0.79687 l -5.5,-18.5625 -2.6875,18.5625 q -0.09375,0.64062 -0.546875,0.98437 -0.4375,0.39063 -1.03125,0.39063 -0.5,0 -0.859375,-0.42188 -0.40625,-0.46875 -0.453125,-1.21875 0.0625,-0.3125 0.0625,-0.64062 z"
     style="font-style:normal;font-variant:normal;font-weight:normal;font-stretch:normal;font-size:32px;font-family:Arial-Rounded;-inkscape-font-specification:'Arial-Rounded, Normal';font-variant-ligatures:normal;font-variant-caps:normal;font-variant-numeric:normal;font-variant-east-asian:normal"
     id="path968" /><path
     d="m 45,354.24271 q 0,-3.09375 1.1875,-5.76563 1.203125,-2.65625 3.484375,-4.28125 2.296875,-1.60937 5.359375,-1.60937 2.296875,0 4.21875,0.9375 1.796875,0.875 3.109375,2.53125 1.265625,1.57812 1.9375,3.70312 0.65625,2.03125 0.703125,4.48438 0,3.17187 -1.171875,5.76562 -0.5625,1.28125 -1.46875,2.35938 -0.890625,1.07812 -2.03125,1.85937 -2.203125,1.5625 -5.296875,1.5625 -2.828125,0 -5.09375,-1.4375 -2.34375,-1.5 -3.625,-4.09375 Q 45,357.55521 45,354.24271 Z m 3.015625,-0.0625 q 0,2.09375 0.640625,4.1875 0.640625,2.07812 2.203125,3.54687 1.546875,1.45313 4.171875,1.45313 1.375,0 2.71875,-0.57813 1.234375,-0.57812 2.203125,-1.73437 1,-1.20313 1.5,-2.875 0.53125,-1.70313 0.578125,-4 0,-2.1875 -0.546875,-4 -0.484375,-1.64063 -1.46875,-2.875 -0.953125,-1.125 -2.25,-1.70313 -1.28125,-0.57812 -2.734375,-0.57812 -1.953125,0 -3.5625,1.0625 -1.625,1.09375 -2.53125,3.125 -0.921875,2.07812 -0.921875,4.96875 z"
     style="font-style:normal;font-variant:normal;font-weight:normal;font-stretch:normal;font-size:32px;font-family:Arial-Rounded;-inkscape-font-specification:'Arial-Rounded, Normal';font-variant-ligatures:normal;font-variant-caps:normal;font-variant-numeric:normal;font-variant-east-asian:normal"
     id="path970" /><path
     d="m 79.28125,345.41458 h -4.390625 q -0.59375,0 -0.921875,-0.39062 -0.34375,-0.35938 -0.390625,-0.92188 0.04687,-0.5625 0.421875,-0.9375 0.328125,-0.375 0.953125,-0.375 H 86.375 q 0.671875,0 1.03125,0.375 0.34375,0.42188 0.34375,0.9375 0,0.5625 -0.3125,0.92188 -0.34375,0.39062 -0.9375,0.39062 h -4.40625 v 18.9375 q 0,0.6875 -0.421875,1.0625 -0.421875,0.375 -1.015625,0.375 -0.515625,0 -0.96875,-0.375 -0.40625,-0.39062 -0.40625,-1.0625 z"
     style="font-style:normal;font-variant:normal;font-weight:normal;font-stretch:normal;font-size:32px;font-family:Arial-Rounded;-inkscape-font-specification:'Arial-Rounded, Normal';font-variant-ligatures:normal;font-variant-caps:normal;font-variant-numeric:normal;font-variant-east-asian:normal"
     id="path972" /><path
     d="m 95.875,354.24271 q 0,-3.09375 1.1875,-5.76563 1.203125,-2.65625 3.48438,-4.28125 2.29687,-1.60937 5.35937,-1.60937 2.29688,0 4.21875,0.9375 1.79688,0.875 3.10938,2.53125 1.26562,1.57812 1.9375,3.70312 0.65625,2.03125 0.70312,4.48438 0,3.17187 -1.17187,5.76562 -0.5625,1.28125 -1.46875,2.35938 -0.89063,1.07812 -2.03125,1.85937 -2.20313,1.5625 -5.29688,1.5625 -2.82812,0 -5.09375,-1.4375 -2.34375,-1.5 -3.625,-4.09375 -1.3125,-2.70312 -1.3125,-6.01562 z m 3.015625,-0.0625 q 0,2.09375 0.640625,4.1875 0.64063,2.07812 2.20313,3.54687 1.54687,1.45313 4.17187,1.45313 1.375,0 2.71875,-0.57813 1.23438,-0.57812 2.20313,-1.73437 1,-1.20313 1.5,-2.875 0.53125,-1.70313 0.57812,-4 0,-2.1875 -0.54687,-4 -0.48438,-1.64063 -1.46875,-2.875 -0.95313,-1.125 -2.25,-1.70313 -1.28125,-0.57812 -2.73438,-0.57812 -1.95312,0 -3.5625,1.0625 -1.625,1.09375 -2.53125,3.125 -0.921875,2.07812 -0.921875,4.96875 z"
     style="font-style:normal;font-variant:normal;font-weight:normal;font-stretch:normal;font-size:32px;font-family:Arial-Rounded;-inkscape-font-specification:'Arial-Rounded, Normal';font-variant-ligatures:normal;font-variant-caps:normal;font-variant-numeric:normal;font-variant-east-asian:normal"
     id="path974" /><path
     d="m 129.125,345.21146 v 8.14062 h 3.96875 q 1.57812,0 2.5,-0.54687 0.85937,-0.51563 1.21875,-1.4375 0.32812,-0.875 0.375,-2.15625 0,-1.20313 -0.57813,-2.10938 -0.5,-0.89062 -1.5,-1.40625 -1.04687,-0.48437 -2.14062,-0.48437 z m -2.78125,-0.92188 q 0,-0.79687 0.4375,-1.14062 0.45313,-0.35938 0.9375,-0.35938 h 5.46875 q 1.59375,0 3.17187,0.76563 1.64063,0.75 2.625,2.29687 1.01563,1.5625 1.01563,3.75 -0.14063,1.70313 -0.67188,2.78125 -0.5,1.125 -1.5,1.82813 -0.85937,0.6875 -2.23437,0.98437 -1.28125,0.29688 -3.01563,0.29688 l 7.29688,8 q 0.57812,0.51562 0.57812,1.25 0,0.40625 -0.39062,0.70312 -0.375,0.28125 -0.92188,0.28125 -0.82812,0 -1.3125,-0.57812 l -8.70312,-9.5625 v 8.82812 q 0,0.70313 -0.4375,1.04688 -0.42188,0.32812 -0.96875,0.32812 -0.5625,0 -0.96875,-0.375 -0.40625,-0.34375 -0.40625,-1.0625 z"
     style="font-style:normal;font-variant:normal;font-weight:normal;font-stretch:normal;font-size:32px;font-family:Arial-Rounded;-inkscape-font-specification:'Arial-Rounded, Normal';font-variant-ligatures:normal;font-variant-caps:normal;font-variant-numeric:normal;font-variant-east-asian:normal"
     id="path976" /><path
     d="m 153.4375,345.21146 v 8.14062 h 3.96875 q 1.57812,0 2.5,-0.54687 0.85937,-0.51563 1.21875,-1.4375 0.32812,-0.875 0.375,-2.15625 0,-1.20313 -0.57813,-2.10938 -0.5,-0.89062 -1.5,-1.40625 -1.04687,-0.48437 -2.14062,-0.48437 z m -2.78125,-0.92188 q 0,-0.79687 0.4375,-1.14062 0.45312,-0.35938 0.9375,-0.35938 H 157.5 q 1.59375,0 3.17187,0.76563 1.64063,0.75 2.625,2.29687 1.01563,1.5625 1.01563,3.75 -0.14063,1.70313 -0.67188,2.78125 -0.5,1.125 -1.5,1.82813 -0.85937,0.6875 -2.23437,0.98437 -1.28125,0.29688 -3.01563,0.29688 l 7.29688,8 q 0.57812,0.51562 0.57812,1.25 0,0.40625 -0.39062,0.70312 -0.375,0.28125 -0.92188,0.28125 -0.82812,0 -1.3125,-0.57812 l -8.70312,-9.5625 v 8.82812 q 0,0.70313 -0.4375,1.04688 -0.42188,0.32812 -0.96875,0.32812 -0.5625,0 -0.96875,-0.375 -0.40625,-0.34375 -0.40625,-1.0625 z"
     style="font-style:normal;font-variant:normal;font-weight:normal;font-stretch:normal;font-size:32px;font-family:Arial-Rounded;-inkscape-font-specification:'Arial-Rounded, Normal';font-variant-ligatures:normal;font-variant-caps:normal;font-variant-numeric:normal;font-variant-east-asian:normal"
     id="path978" /><path
     d="m 178.45312,358.24271 h 8.85938 l -4.40625,-12.39063 h -0.0625 z m -0.85937,2.4375 -1.5,4.125 q -0.29688,0.98437 -1.45313,0.98437 -0.5625,0 -0.89062,-0.28125 -0.375,-0.32812 -0.42188,-0.82812 0.0469,-0.21875 0.10938,-0.42188 0.0156,-0.10937 0.0937,-0.35937 l 7.35937,-19.67188 q 0.29688,-0.85937 0.79688,-1.25 0.54687,-0.45312 1.15625,-0.45312 0.65625,0 1.17187,0.42187 0.48438,0.375 0.8125,1.21875 l 7.45313,19.73438 q 0.125,0.48437 0.125,0.84375 0,0.54687 -0.375,0.82812 -0.35938,0.28125 -0.9375,0.28125 -0.45313,0 -0.85938,-0.25 -0.4375,-0.28125 -0.57812,-0.79687 l -1.5,-4.125 z"
     style="font-style:normal;font-variant:normal;font-weight:normal;font-stretch:normal;font-size:32px;font-family:Arial-Rounded;-inkscape-font-specification:'Arial-Rounded, Normal';font-variant-ligatures:normal;font-variant-caps:normal;font-variant-numeric:normal;font-variant-east-asian:normal"
     id="path980" /><path
     d="m 205.125,345.21146 v 17.95312 h 4.39062 q 0.9375,0 2.14063,-0.34375 1.23437,-0.42187 2.26562,-1.375 1.15625,-1.03125 1.85938,-2.85937 0.73437,-1.875 0.73437,-4.67188 0,-2.09375 -0.5,-3.64062 -0.53125,-1.625 -1.51562,-2.75 -0.98438,-1.14063 -2.32813,-1.70313 -1.40625,-0.60937 -3.04687,-0.60937 z m -2.78125,-0.92188 q 0,-1.5 1.46875,-1.5 h 5.76562 q 3.0625,0 5.34375,1.5 2.21875,1.51563 3.42188,4.125 1.1875,2.57813 1.1875,5.70313 -0.0469,3.32812 -1.15625,5.95312 -1.07813,2.57813 -3.32813,4.0625 -2.14062,1.46875 -5.21875,1.46875 h -6.01562 q -0.78125,0 -1.10938,-0.45312 -0.35937,-0.4375 -0.35937,-0.79688 z"
     style="font-style:normal;font-variant:normal;font-weight:normal;font-stretch:normal;font-size:32px;font-family:Arial-Rounded;-inkscape-font-specification:'Arial-Rounded, Normal';font-variant-ligatures:normal;font-variant-caps:normal;font-variant-numeric:normal;font-variant-east-asian:normal"
     id="path982" /><path
     d="m 249.28125,345.41458 h -4.39063 q -0.59375,0 -0.92187,-0.39062 -0.34375,-0.35938 -0.39063,-0.92188 0.0469,-0.5625 0.42188,-0.9375 0.32812,-0.375 0.95312,-0.375 H 256.375 q 0.67187,0 1.03125,0.375 0.34375,0.42188 0.34375,0.9375 0,0.5625 -0.3125,0.92188 -0.34375,0.39062 -0.9375,0.39062 h -4.40625 v 18.9375 q 0,0.6875 -0.42188,1.0625 -0.42187,0.375 -1.01562,0.375 -0.51563,0 -0.96875,-0.375 -0.40625,-0.39062 -0.40625,-1.0625 z"
     style="font-style:normal;font-variant:normal;font-weight:normal;font-stretch:normal;font-size:32px;font-family:Arial-Rounded;-inkscape-font-specification:'Arial-Rounded, Normal';font-variant-ligatures:normal;font-variant-caps:normal;font-variant-numeric:normal;font-variant-east-asian:normal"
     id="path984" /><path
     d="m 269.5625,345.21146 v 8.14062 h 3.96875 q 1.57812,0 2.5,-0.54687 0.85937,-0.51563 1.21875,-1.4375 0.32812,-0.875 0.375,-2.15625 0,-1.20313 -0.57813,-2.10938 -0.5,-0.89062 -1.5,-1.40625 -1.04687,-0.48437 -2.14062,-0.48437 z m -2.78125,-0.92188 q 0,-0.79687 0.4375,-1.14062 0.45312,-0.35938 0.9375,-0.35938 h 5.46875 q 1.59375,0 3.17187,0.76563 1.64063,0.75 2.625,2.29687 1.01563,1.5625 1.01563,3.75 -0.14063,1.70313 -0.67188,2.78125 -0.5,1.125 -1.5,1.82813 -0.85937,0.6875 -2.23437,0.98437 -1.28125,0.29688 -3.01563,0.29688 l 7.29688,8 q 0.57812,0.51562 0.57812,1.25 0,0.40625 -0.39062,0.70312 -0.375,0.28125 -0.92188,0.28125 -0.82812,0 -1.3125,-0.57812 l -8.70312,-9.5625 v 8.82812 q 0,0.70313 -0.4375,1.04688 -0.42188,0.32812 -0.96875,0.32812 -0.5625,0 -0.96875,-0.375 -0.40625,-0.34375 -0.40625,-1.0625 z"
     style="font-style:normal;font-variant:normal;font-weight:normal;font-stretch:normal;font-size:32px;font-family:Arial-Rounded;-inkscape-font-specification:'Arial-Rounded, Normal';font-variant-ligatures:normal;font-variant-caps:normal;font-variant-numeric:normal;font-variant-east-asian:normal"
     id="path986" /><path
     d="m 294.57812,358.24271 h 8.85938 l -4.40625,-12.39063 h -0.0625 z m -0.85937,2.4375 -1.5,4.125 q -0.29688,0.98437 -1.45313,0.98437 -0.5625,0 -0.89062,-0.28125 -0.375,-0.32812 -0.42188,-0.82812 0.0469,-0.21875 0.10938,-0.42188 0.0156,-0.10937 0.0937,-0.35937 l 7.35937,-19.67188 q 0.29688,-0.85937 0.79688,-1.25 0.54687,-0.45312 1.15625,-0.45312 0.65625,0 1.17187,0.42187 0.48438,0.375 0.8125,1.21875 l 7.45313,19.73438 q 0.125,0.48437 0.125,0.84375 0,0.54687 -0.375,0.82812 -0.35938,0.28125 -0.9375,0.28125 -0.45313,0 -0.85938,-0.25 -0.4375,-0.28125 -0.57812,-0.79687 l -1.5,-4.125 z"
     style="font-style:normal;font-variant:normal;font-weight:normal;font-stretch:normal;font-size:32px;font-family:Arial-Rounded;-inkscape-font-specification:'Arial-Rounded, Normal';font-variant-ligatures:normal;font-variant-caps:normal;font-variant-numeric:normal;font-variant-east-asian:normal"
     id="path988" /><path
     d="m 318.34375,344.10208 q 0,-1.51562 1.4375,-1.51562 0.5625,0 0.95312,0.39062 0.39063,0.32813 0.39063,1.125 v 20.125 q 0,0.89063 -0.4375,1.23438 -0.42188,0.32812 -0.90625,0.32812 -1.4375,0 -1.4375,-1.5 z"
     style="font-style:normal;font-variant:normal;font-weight:normal;font-stretch:normal;font-size:32px;font-family:Arial-Rounded;-inkscape-font-specification:'Arial-Rounded, Normal';font-variant-ligatures:normal;font-variant-caps:normal;font-variant-numeric:normal;font-variant-east-asian:normal"
     id="path990" /><path
     d="m 332.53125,344.03958 q 0,-0.73437 0.3125,-1.09375 0.34375,-0.42187 0.875,-0.42187 0.95312,0 1.59375,0.96875 l 11.96875,17.1875 h 0.0312 v -16.57813 q 0,-0.71875 0.42187,-1.125 0.4375,-0.39062 0.95313,-0.39062 0.5625,0 1.03125,0.39062 0.40625,0.40625 0.40625,1.125 v 20.3125 q 0,0.64063 -0.34375,1.0625 -0.34375,0.375 -0.90625,0.375 -0.85938,0 -1.5625,-0.89062 l -11.9375,-17.1875 -0.0625,-0.0625 v 16.70312 q 0,0.70313 -0.4375,1.04688 -0.42188,0.32812 -0.96875,0.32812 -0.5625,0 -0.96875,-0.375 -0.40625,-0.34375 -0.40625,-1.0625 z"
     style="font-style:normal;font-variant:normal;font-weight:normal;font-stretch:normal;font-size:32px;font-family:Arial-Rounded;-inkscape-font-specification:'Arial-Rounded, Normal';font-variant-ligatures:normal;font-variant-caps:normal;font-variant-numeric:normal;font-variant-east-asian:normal"
     id="path992" /><path
     d="m 361.53125,344.10208 q 0,-1.51562 1.4375,-1.51562 0.5625,0 0.95312,0.39062 0.39063,0.32813 0.39063,1.125 v 20.125 q 0,0.89063 -0.4375,1.23438 -0.42188,0.32812 -0.90625,0.32812 -1.4375,0 -1.4375,-1.5 z"
     style="font-style:normal;font-variant:normal;font-weight:normal;font-stretch:normal;font-size:32px;font-family:Arial-Rounded;-inkscape-font-specification:'Arial-Rounded, Normal';font-variant-ligatures:normal;font-variant-caps:normal;font-variant-numeric:normal;font-variant-east-asian:normal"
     id="path994" /><path
     d="m 375.71875,344.03958 q 0,-0.73437 0.3125,-1.09375 0.34375,-0.42187 0.875,-0.42187 0.95312,0 1.59375,0.96875 l 11.96875,17.1875 H 390.5 v -16.57813 q 0,-0.71875 0.42187,-1.125 0.4375,-0.39062 0.95313,-0.39062 0.5625,0 1.03125,0.39062 0.40625,0.40625 0.40625,1.125 v 20.3125 q 0,0.64063 -0.34375,1.0625 -0.34375,0.375 -0.90625,0.375 -0.85938,0 -1.5625,-0.89062 l -11.9375,-17.1875 -0.0625,-0.0625 v 16.70312 q 0,0.70313 -0.4375,1.04688 -0.42188,0.32812 -0.96875,0.32812 -0.5625,0 -0.96875,-0.375 -0.40625,-0.34375 -0.40625,-1.0625 z"
     style="font-style:normal;font-variant:normal;font-weight:normal;font-stretch:normal;font-size:32px;font-family:Arial-Rounded;-inkscape-font-specification:'Arial-Rounded, Normal';font-variant-ligatures:normal;font-variant-caps:normal;font-variant-numeric:normal;font-variant-east-asian:normal"
     id="path996" /><path
     d="m 421.70312,345.41458 q 0.32813,0.3125 0.32813,0.92188 0,0.53125 -0.40625,0.875 -0.39063,0.32812 -0.96875,0.375 -0.625,-0.0469 -1.09375,-0.42188 -1.17188,-0.90625 -2.46875,-1.5625 -1.17188,-0.57812 -3,-0.57812 -1.92188,0 -3.35938,0.84375 -1.4375,0.82812 -2.25,2.17187 -0.875,1.39063 -1.23437,2.90625 -0.375,1.4375 -0.42188,3.04688 0,2 0.60938,4.03125 0.64062,2.125 2.10937,3.64062 1.53125,1.53125 4.09375,1.70313 1.84375,0 3.48438,-0.78125 1.57812,-0.78125 2.59375,-2.42188 1,-1.57812 1,-4 v -1 h -4.0625 q -1.17188,0 -1.3125,-1.25 0.14062,-1.375 1.1875,-1.375 h 5.10937 q 1.85938,0 1.85938,2.125 v 0.5 q 0,2.3125 -0.64063,4.64063 -0.625,2.34375 -2.78125,4.17187 -2.17187,1.8125 -6.23437,1.8125 -2.65625,0 -4.57813,-1.07812 -1.90625,-1.04688 -3.10937,-2.79688 -1.17188,-1.625 -1.76563,-3.64062 -0.5,-1.9375 -0.57812,-3.75 0,-2.29688 0.64062,-4.5625 0.625,-2.15625 1.92188,-3.78125 1.26562,-1.64063 3.17187,-2.57813 1.90625,-0.95312 4.35938,-1.01562 2.45312,0 4.60937,0.78125 2.04688,0.6875 3.1875,2.04687 z"
     style="font-style:normal;font-variant:normal;font-weight:normal;font-stretch:normal;font-size:32px;font-family:Arial-Rounded;-inkscape-font-specification:'Arial-Rounded, Normal';font-variant-ligatures:normal;font-variant-caps:normal;font-variant-numeric:normal;font-variant-east-asian:normal"
     id="path998" /></g><g
   aria-label="G O   F L Y   R I D E "
   id="text935"
   style="font-size:40px;line-height:1.25;font-family:Arial-Rounded;-inkscape-font-specification:'Arial-Rounded, Normal';fill:#1f60ac;fill-opacity:1;stroke:#1f60ac;stroke-opacity:1"><path
     d="m 119.10938,405.41458 q 0.32813,0.3125 0.32813,0.92188 0,0.53125 -0.40625,0.875 -0.39063,0.32812 -0.96875,0.375 -0.625,-0.0469 -1.09375,-0.42188 -1.17188,-0.90625 -2.46875,-1.5625 -1.17188,-0.57812 -3,-0.57812 -1.92188,0 -3.35938,0.84375 -1.4375,0.82812 -2.25,2.17187 -0.875,1.39063 -1.23437,2.90625 -0.375,1.4375 -0.42188,3.04688 0,2 0.60938,4.03125 0.64062,2.125 2.10937,3.64062 1.53125,1.53125 4.09375,1.70313 1.84375,0 3.48438,-0.78125 1.57812,-0.78125 2.59375,-2.42188 1,-1.57812 1,-4 v -1 h -4.0625 q -1.17188,0 -1.3125,-1.25 0.14062,-1.375 1.1875,-1.375 h 5.10937 q 1.85938,0 1.85938,2.125 v 0.5 q 0,2.3125 -0.64063,4.64063 -0.625,2.34375 -2.78125,4.17187 -2.17187,1.8125 -6.23437,1.8125 -2.65625,0 -4.57813,-1.07812 -1.90625,-1.04688 -3.10937,-2.79688 -1.17188,-1.625 -1.76563,-3.64062 -0.5,-1.9375 -0.57812,-3.75 0,-2.29688 0.64062,-4.5625 0.625,-2.15625 1.92188,-3.78125 1.26562,-1.64063 3.17187,-2.57813 1.90625,-0.95312 4.35938,-1.01562 2.45312,0 4.60937,0.78125 2.04688,0.6875 3.1875,2.04687 z"
     style="font-style:normal;font-variant:normal;font-weight:normal;font-stretch:normal;font-size:32px;font-family:Arial-Rounded;-inkscape-font-specification:'Arial-Rounded, Normal';font-variant-ligatures:normal;font-variant-caps:normal;font-variant-numeric:normal;font-variant-east-asian:normal"
     id="path1001" /><path
     d="m 130.28126,414.24271 q 0,-3.09375 1.1875,-5.76563 1.20312,-2.65625 3.48437,-4.28125 2.29688,-1.60937 5.35938,-1.60937 2.29687,0 4.21875,0.9375 1.79687,0.875 3.10937,2.53125 1.26563,1.57812 1.9375,3.70312 0.65625,2.03125 0.70313,4.48438 0,3.17187 -1.17188,5.76562 -0.5625,1.28125 -1.46875,2.35938 -0.89062,1.07812 -2.03125,1.85937 -2.20312,1.5625 -5.29687,1.5625 -2.82813,0 -5.09375,-1.4375 -2.34375,-1.5 -3.625,-4.09375 -1.3125,-2.70312 -1.3125,-6.01562 z m 3.01562,-0.0625 q 0,2.09375 0.64063,4.1875 0.64062,2.07812 2.20312,3.54687 1.54688,1.45313 4.17188,1.45313 1.375,0 2.71875,-0.57813 1.23437,-0.57812 2.20312,-1.73437 1,-1.20313 1.5,-2.875 0.53125,-1.70313 0.57813,-4 0,-2.1875 -0.54688,-4 -0.48437,-1.64063 -1.46875,-2.875 -0.95312,-1.125 -2.25,-1.70313 -1.28125,-0.57812 -2.73437,-0.57812 -1.95313,0 -3.5625,1.0625 -1.625,1.09375 -2.53125,3.125 -0.92188,2.07812 -0.92188,4.96875 z"
     style="font-style:normal;font-variant:normal;font-weight:normal;font-stretch:normal;font-size:32px;font-family:Arial-Rounded;-inkscape-font-specification:'Arial-Rounded, Normal';font-variant-ligatures:normal;font-variant-caps:normal;font-variant-numeric:normal;font-variant-east-asian:normal"
     id="path1003" /><path
     d="m 176.12501,404.35208 q 0,-0.6875 0.34375,-1.15625 0.34375,-0.40625 0.84375,-0.40625 h 8.60937 q 0.45313,0 0.76563,0.375 0.28125,0.4375 0.28125,1 0,0.57813 -0.3125,0.89063 -0.35938,0.35937 -1,0.35937 h -6.75 v 7.51563 h 6.07812 q 0.59375,0 0.9375,0.39062 0.3125,0.35938 0.3125,0.95313 0,0.53125 -0.3125,0.89062 -0.34375,0.39063 -0.875,0.39063 h -6.14062 v 8.73437 q 0,0.70313 -0.42188,1.125 -0.42187,0.375 -0.98437,0.375 -0.51563,0 -0.96875,-0.375 -0.40625,-0.39062 -0.40625,-1.0625 z"
     style="font-style:normal;font-variant:normal;font-weight:normal;font-stretch:normal;font-size:32px;font-family:Arial-Rounded;-inkscape-font-specification:'Arial-Rounded, Normal';font-variant-ligatures:normal;font-variant-caps:normal;font-variant-numeric:normal;font-variant-east-asian:normal"
     id="path1005" /><path
     d="m 196.81251,404.10208 q 0,-0.76562 0.40625,-1.125 0.42187,-0.39062 1.03125,-0.39062 1.34375,0 1.34375,1.64062 v 18.75 h 5.76562 q 0.65625,0 1.14063,0.32813 0.48437,0.32812 0.48437,0.92187 0,0.85938 -0.45312,1.125 -0.45313,0.25 -0.73438,0.25 h -7.67187 q -0.51563,0 -0.90625,-0.39062 -0.40625,-0.3125 -0.40625,-1.3125 z"
     style="font-style:normal;font-variant:normal;font-weight:normal;font-stretch:normal;font-size:32px;font-family:Arial-Rounded;-inkscape-font-specification:'Arial-Rounded, Normal';font-variant-ligatures:normal;font-variant-caps:normal;font-variant-numeric:normal;font-variant-east-asian:normal"
     id="path1007" /><path
     d="m 221.04688,414.85208 -6.23437,-10.10937 q -0.34375,-0.60938 -0.39063,-1.03125 0,-0.46875 0.375,-0.79688 0.39063,-0.32812 0.875,-0.32812 0.875,0 1.375,0.78125 l 5.375,8.73437 5.375,-8.67187 q 0.5,-0.84375 1.3125,-0.84375 0.51563,0 0.875,0.32812 0.375,0.32813 0.375,0.85938 0,0.4375 -0.25,0.90625 l -6.25,10.17187 v 9.4375 q 0,0.70313 -0.45312,1.15625 -0.40625,0.40625 -0.98438,0.40625 -0.51562,0 -0.95312,-0.4375 -0.42188,-0.42187 -0.42188,-1.125 z"
     style="font-style:normal;font-variant:normal;font-weight:normal;font-stretch:normal;font-size:32px;font-family:Arial-Rounded;-inkscape-font-specification:'Arial-Rounded, Normal';font-variant-ligatures:normal;font-variant-caps:normal;font-variant-numeric:normal;font-variant-east-asian:normal"
     id="path1009" /><path
     d="m 257.59376,405.21146 v 8.14062 h 3.96875 q 1.57812,0 2.5,-0.54687 0.85937,-0.51563 1.21875,-1.4375 0.32812,-0.875 0.375,-2.15625 0,-1.20313 -0.57813,-2.10938 -0.5,-0.89062 -1.5,-1.40625 -1.04687,-0.48437 -2.14062,-0.48437 z m -2.78125,-0.92188 q 0,-0.79687 0.4375,-1.14062 0.45312,-0.35938 0.9375,-0.35938 h 5.46875 q 1.59375,0 3.17187,0.76563 1.64063,0.75 2.625,2.29687 1.01563,1.5625 1.01563,3.75 -0.14063,1.70313 -0.67188,2.78125 -0.5,1.125 -1.5,1.82813 -0.85937,0.6875 -2.23437,0.98437 -1.28125,0.29688 -3.01563,0.29688 l 7.29688,8 q 0.57812,0.51562 0.57812,1.25 0,0.40625 -0.39062,0.70312 -0.375,0.28125 -0.92188,0.28125 -0.82812,0 -1.3125,-0.57812 l -8.70312,-9.5625 v 8.82812 q 0,0.70313 -0.4375,1.04688 -0.42188,0.32812 -0.96875,0.32812 -0.5625,0 -0.96875,-0.375 -0.40625,-0.34375 -0.40625,-1.0625 z"
     style="font-style:normal;font-variant:normal;font-weight:normal;font-stretch:normal;font-size:32px;font-family:Arial-Rounded;-inkscape-font-specification:'Arial-Rounded, Normal';font-variant-ligatures:normal;font-variant-caps:normal;font-variant-numeric:normal;font-variant-east-asian:normal"
     id="path1011" /><path
     d="m 279.12501,404.10208 q 0,-1.51562 1.4375,-1.51562 0.5625,0 0.95312,0.39062 0.39063,0.32813 0.39063,1.125 v 20.125 q 0,0.89063 -0.4375,1.23438 -0.42188,0.32812 -0.90625,0.32812 -1.4375,0 -1.4375,-1.5 z"
     style="font-style:normal;font-variant:normal;font-weight:normal;font-stretch:normal;font-size:32px;font-family:Arial-Rounded;-inkscape-font-specification:'Arial-Rounded, Normal';font-variant-ligatures:normal;font-variant-caps:normal;font-variant-numeric:normal;font-variant-east-asian:normal"
     id="path1013" /><path
     d="m 296.21876,405.21146 v 17.95312 h 4.39062 q 0.9375,0 2.14063,-0.34375 1.23437,-0.42187 2.26562,-1.375 1.15625,-1.03125 1.85938,-2.85937 0.73437,-1.875 0.73437,-4.67188 0,-2.09375 -0.5,-3.64062 -0.53125,-1.625 -1.51562,-2.75 -0.98438,-1.14063 -2.32813,-1.70313 -1.40625,-0.60937 -3.04687,-0.60937 z m -2.78125,-0.92188 q 0,-1.5 1.46875,-1.5 h 5.76562 q 3.0625,0 5.34375,1.5 2.21875,1.51563 3.42188,4.125 1.1875,2.57813 1.1875,5.70313 -0.0469,3.32812 -1.15625,5.95312 -1.07813,2.57813 -3.32813,4.0625 -2.14062,1.46875 -5.21875,1.46875 h -6.01562 q -0.78125,0 -1.10938,-0.45312 -0.35937,-0.4375 -0.35937,-0.79688 z"
     style="font-style:normal;font-variant:normal;font-weight:normal;font-stretch:normal;font-size:32px;font-family:Arial-Rounded;-inkscape-font-specification:'Arial-Rounded, Normal';font-variant-ligatures:normal;font-variant-caps:normal;font-variant-numeric:normal;font-variant-east-asian:normal"
     id="path1015" /><path
     d="m 321.18751,404.35208 q 0,-0.6875 0.34375,-1.15625 0.34375,-0.40625 0.84375,-0.40625 h 8.60937 q 0.5,0 0.85938,0.375 0.3125,0.375 0.3125,0.9375 0,0.5625 -0.3125,0.92188 -0.34375,0.39062 -0.9375,0.39062 h -6.9375 v 7.51563 h 6.34375 q 0.59375,0 0.92187,0.39062 0.3125,0.3125 0.3125,0.92188 0,0.53125 -0.34375,0.92187 -0.32812,0.39063 -0.96875,0.39063 h -6.26562 v 7.42187 h 7.01562 q 0.57813,0 0.85938,0.39063 0.3125,0.35937 0.3125,0.98437 0,0.5 -0.34375,0.89063 -0.35938,0.35937 -1.03125,0.35937 h -8.21875 q -0.90625,0 -1.125,-0.51562 -0.25,-0.54688 -0.25,-0.98438 z"
     style="font-style:normal;font-variant:normal;font-weight:normal;font-stretch:normal;font-size:32px;font-family:Arial-Rounded;-inkscape-font-specification:'Arial-Rounded, Normal';font-variant-ligatures:normal;font-variant-caps:normal;font-variant-numeric:normal;font-variant-east-asian:normal"
     id="path1017" /></g></svg>
